<mxfile host="app.diagrams.net" modified="2021-12-02T14:34:50.852Z" agent="5.0 (Windows NT 10.0; Win64; x64) AppleWebKit/537.36 (KHTML, like Gecko) Chrome/96.0.4664.45 Safari/537.36" etag="DNr19RvpSUkag0RJNpLI" version="15.8.6" type="github">
  <diagram id="HR9_n5Z5EPv3uz4dXPnF" name="Page-1">
    <mxGraphModel dx="2080" dy="2137" grid="1" gridSize="10" guides="1" tooltips="1" connect="1" arrows="1" fold="1" page="1" pageScale="1" pageWidth="1100" pageHeight="1700" math="0" shadow="0">
      <root>
        <mxCell id="0" />
        <mxCell id="1" parent="0" />
        <mxCell id="EzxEwULjFDBiXr7_w85N-3" value="Client" style="html=1;overflow=block;blockSpacing=1;whiteSpace=wrap;swimlane;childLayout=stackLayout;horizontal=1;horizontalStack=0;resizeParent=1;resizeParentMax=0;resizeLast=0;collapsible=0;fontStyle=0;marginBottom=0;swimlaneFillColor=#ffffff;startSize=25;whiteSpace=wrap;fontSize=16.7;fontColor=#333333;whiteSpace=wrap;align=center;spacing=0;strokeColor=#5e5e5e;strokeOpacity=100;rounded=1;absoluteArcSize=1;arcSize=9;strokeWidth=2.3;" vertex="1" parent="1">
          <mxGeometry y="-615" width="255" height="144" as="geometry" />
        </mxCell>
        <mxCell id="EzxEwULjFDBiXr7_w85N-4" value="-btn_distribute:Button&#xa;-btn_action:Button&#xa;-btn_statistics:Button&#xa;-btn_modify:Button" style="part=1;html=1;whiteSpace=wrap;resizeHeight=0;strokeColor=none;fillColor=none;align=left;verticalAlign=middle;spacingLeft=4;spacingRight=4;overflow=hidden;rotatable=0;points=[[0,0.5],[1,0.5]];portConstraint=eastwest;swimlaneFillColor=#ffffff;strokeOpacity=100;whiteSpace=wrap;fontSize=16.7;fontColor=#333333;" vertex="1" parent="EzxEwULjFDBiXr7_w85N-3">
          <mxGeometry y="25" width="255" height="66" as="geometry" />
        </mxCell>
        <mxCell id="EzxEwULjFDBiXr7_w85N-5" value="" style="line;strokeWidth=1;fillColor=none;align=left;verticalAlign=middle;spacingTop=-1;spacingLeft=3;spacingRight=3;rotatable=0;labelPosition=right;points=[];portConstraint=eastwest;" vertex="1" parent="EzxEwULjFDBiXr7_w85N-3">
          <mxGeometry y="91" width="255" height="8" as="geometry" />
        </mxCell>
        <mxCell id="EzxEwULjFDBiXr7_w85N-6" value="+onClick(v:View):void" style="part=1;html=1;whiteSpace=wrap;resizeHeight=0;strokeColor=none;fillColor=none;align=left;verticalAlign=middle;spacingLeft=4;spacingRight=4;overflow=hidden;rotatable=0;points=[[0,0.5],[1,0.5]];portConstraint=eastwest;swimlaneFillColor=#ffffff;strokeOpacity=100;whiteSpace=wrap;fontSize=16.7;fontColor=#333333;" vertex="1" parent="EzxEwULjFDBiXr7_w85N-3">
          <mxGeometry y="99" width="255" height="45" as="geometry" />
        </mxCell>
        <mxCell id="EzxEwULjFDBiXr7_w85N-7" value="LoginPL" style="html=1;overflow=block;blockSpacing=1;whiteSpace=wrap;swimlane;childLayout=stackLayout;horizontal=1;horizontalStack=0;resizeParent=1;resizeParentMax=0;resizeLast=0;collapsible=0;fontStyle=0;marginBottom=0;swimlaneFillColor=#ffffff;startSize=25;whiteSpace=wrap;fontSize=16.7;fontColor=#333333;whiteSpace=wrap;align=center;spacing=0;strokeColor=#5e5e5e;strokeOpacity=100;rounded=1;absoluteArcSize=1;arcSize=9;strokeWidth=2.3;" vertex="1" parent="1">
          <mxGeometry x="-7" y="-390" width="270" height="148.25" as="geometry" />
        </mxCell>
        <mxCell id="EzxEwULjFDBiXr7_w85N-8" value="" style="part=1;html=1;whiteSpace=wrap;resizeHeight=0;strokeColor=none;fillColor=none;align=left;verticalAlign=middle;spacingLeft=4;spacingRight=4;overflow=hidden;rotatable=0;points=[[0,0.5],[1,0.5]];portConstraint=eastwest;swimlaneFillColor=#ffffff;strokeOpacity=100;whiteSpace=wrap;fontSize=13;" vertex="1" parent="EzxEwULjFDBiXr7_w85N-7">
          <mxGeometry y="25" width="270" height="52" as="geometry" />
        </mxCell>
        <mxCell id="EzxEwULjFDBiXr7_w85N-9" value="" style="line;strokeWidth=1;fillColor=none;align=left;verticalAlign=middle;spacingTop=-1;spacingLeft=3;spacingRight=3;rotatable=0;labelPosition=right;points=[];portConstraint=eastwest;" vertex="1" parent="EzxEwULjFDBiXr7_w85N-7">
          <mxGeometry y="77" width="270" height="8" as="geometry" />
        </mxCell>
        <mxCell id="EzxEwULjFDBiXr7_w85N-10" value="+contentView():void" style="part=1;html=1;whiteSpace=wrap;resizeHeight=0;strokeColor=none;fillColor=none;align=left;verticalAlign=middle;spacingLeft=4;spacingRight=4;overflow=hidden;rotatable=0;points=[[0,0.5],[1,0.5]];portConstraint=eastwest;swimlaneFillColor=#ffffff;strokeOpacity=100;whiteSpace=wrap;fontSize=16.7;fontColor=#333333;" vertex="1" parent="EzxEwULjFDBiXr7_w85N-7">
          <mxGeometry y="85" width="270" height="63.25" as="geometry" />
        </mxCell>
        <mxCell id="EzxEwULjFDBiXr7_w85N-11" value="&lt;div&gt;&lt;span&gt;LoginAL&lt;/span&gt;&lt;/div&gt;" style="html=1;overflow=block;blockSpacing=1;whiteSpace=wrap;swimlane;childLayout=stackLayout;horizontal=1;horizontalStack=0;resizeParent=1;resizeParentMax=0;resizeLast=0;collapsible=0;fontStyle=0;marginBottom=0;swimlaneFillColor=#ffffff;startSize=25;whiteSpace=wrap;fontSize=16.7;fontColor=#333333;whiteSpace=wrap;align=center;spacing=0;strokeColor=#5e5e5e;strokeOpacity=100;rounded=1;absoluteArcSize=1;arcSize=9;strokeWidth=2.3;" vertex="1" parent="1">
          <mxGeometry x="360" y="-600" width="300" height="260" as="geometry" />
        </mxCell>
        <mxCell id="EzxEwULjFDBiXr7_w85N-12" value="-UserEmail:String&#xa;-UserPassword:String&#xa;-LoginButton:Button&#xa;-PhoneLoginButton:Button&#xa;-NeedNewAccount:TextView&#xa;-CheckBox:CheckBox" style="part=1;html=1;whiteSpace=wrap;resizeHeight=0;strokeColor=none;fillColor=none;align=left;verticalAlign=middle;spacingLeft=4;spacingRight=4;overflow=hidden;rotatable=0;points=[[0,0.5],[1,0.5]];portConstraint=eastwest;swimlaneFillColor=#ffffff;strokeOpacity=100;whiteSpace=wrap;fontSize=16.7;fontColor=#333333;" vertex="1" parent="EzxEwULjFDBiXr7_w85N-11">
          <mxGeometry y="25" width="300" height="145" as="geometry" />
        </mxCell>
        <mxCell id="EzxEwULjFDBiXr7_w85N-13" value="" style="line;strokeWidth=1;fillColor=none;align=left;verticalAlign=middle;spacingTop=-1;spacingLeft=3;spacingRight=3;rotatable=0;labelPosition=right;points=[];portConstraint=eastwest;" vertex="1" parent="EzxEwULjFDBiXr7_w85N-11">
          <mxGeometry y="170" width="300" height="8" as="geometry" />
        </mxCell>
        <mxCell id="EzxEwULjFDBiXr7_w85N-14" value="-allowuserLogin():void&#xa;-sendUserToClient():void" style="part=1;html=1;whiteSpace=wrap;resizeHeight=0;strokeColor=none;fillColor=none;align=left;verticalAlign=middle;spacingLeft=4;spacingRight=4;overflow=hidden;rotatable=0;points=[[0,0.5],[1,0.5]];portConstraint=eastwest;swimlaneFillColor=#ffffff;strokeOpacity=100;whiteSpace=wrap;fontSize=16.7;fontColor=#333333;" vertex="1" parent="EzxEwULjFDBiXr7_w85N-11">
          <mxGeometry y="178" width="300" height="82" as="geometry" />
        </mxCell>
        <mxCell id="EzxEwULjFDBiXr7_w85N-15" value="LoginDAL" style="html=1;overflow=block;blockSpacing=1;whiteSpace=wrap;swimlane;childLayout=stackLayout;horizontal=1;horizontalStack=0;resizeParent=1;resizeParentMax=0;resizeLast=0;collapsible=0;fontStyle=0;marginBottom=0;swimlaneFillColor=#ffffff;startSize=25;whiteSpace=wrap;fontSize=16.7;fontColor=#333333;whiteSpace=wrap;align=center;spacing=0;strokeColor=#5e5e5e;strokeOpacity=100;rounded=1;absoluteArcSize=1;arcSize=9;strokeWidth=2.3;" vertex="1" parent="1">
          <mxGeometry x="730" y="-615" width="270" height="168.25" as="geometry" />
        </mxCell>
        <mxCell id="EzxEwULjFDBiXr7_w85N-16" value="-UserEmail:String&#xa;-UserPassword:String" style="part=1;html=1;whiteSpace=wrap;resizeHeight=0;strokeColor=none;fillColor=none;align=left;verticalAlign=middle;spacingLeft=4;spacingRight=4;overflow=hidden;rotatable=0;points=[[0,0.5],[1,0.5]];portConstraint=eastwest;swimlaneFillColor=#ffffff;strokeOpacity=100;whiteSpace=wrap;fontSize=16.7;fontColor=#333333;" vertex="1" parent="EzxEwULjFDBiXr7_w85N-15">
          <mxGeometry y="25" width="270" height="62" as="geometry" />
        </mxCell>
        <mxCell id="EzxEwULjFDBiXr7_w85N-17" value="" style="line;strokeWidth=1;fillColor=none;align=left;verticalAlign=middle;spacingTop=-1;spacingLeft=3;spacingRight=3;rotatable=0;labelPosition=right;points=[];portConstraint=eastwest;" vertex="1" parent="EzxEwULjFDBiXr7_w85N-15">
          <mxGeometry y="87" width="270" height="8" as="geometry" />
        </mxCell>
        <mxCell id="EzxEwULjFDBiXr7_w85N-18" value="-getData(UserEmail:String):string" style="part=1;html=1;whiteSpace=wrap;resizeHeight=0;strokeColor=none;fillColor=none;align=left;verticalAlign=middle;spacingLeft=4;spacingRight=4;overflow=hidden;rotatable=0;points=[[0,0.5],[1,0.5]];portConstraint=eastwest;swimlaneFillColor=#ffffff;strokeOpacity=100;whiteSpace=wrap;fontSize=16.7;fontColor=#333333;" vertex="1" parent="EzxEwULjFDBiXr7_w85N-15">
          <mxGeometry y="95" width="270" height="73.25" as="geometry" />
        </mxCell>
        <mxCell id="EzxEwULjFDBiXr7_w85N-19" value="UserPL" style="html=1;overflow=block;blockSpacing=1;whiteSpace=wrap;swimlane;childLayout=stackLayout;horizontal=1;horizontalStack=0;resizeParent=1;resizeParentMax=0;resizeLast=0;collapsible=0;fontStyle=0;marginBottom=0;swimlaneFillColor=#ffffff;startSize=25;whiteSpace=wrap;fontSize=16.7;fontColor=#333333;whiteSpace=wrap;align=center;spacing=0;strokeColor=#5e5e5e;strokeOpacity=100;rounded=1;absoluteArcSize=1;arcSize=9;strokeWidth=2.3;" vertex="1" parent="1">
          <mxGeometry x="675" y="-345" width="270" height="168.25" as="geometry" />
        </mxCell>
        <mxCell id="EzxEwULjFDBiXr7_w85N-20" value="-modify: Button&#xa;-submit: Button" style="part=1;html=1;whiteSpace=wrap;resizeHeight=0;strokeColor=none;fillColor=none;align=left;verticalAlign=middle;spacingLeft=4;spacingRight=4;overflow=hidden;rotatable=0;points=[[0,0.5],[1,0.5]];portConstraint=eastwest;swimlaneFillColor=#ffffff;strokeOpacity=100;whiteSpace=wrap;fontSize=16.7;fontColor=#333333;" vertex="1" parent="EzxEwULjFDBiXr7_w85N-19">
          <mxGeometry y="25" width="270" height="62" as="geometry" />
        </mxCell>
        <mxCell id="EzxEwULjFDBiXr7_w85N-21" value="" style="line;strokeWidth=1;fillColor=none;align=left;verticalAlign=middle;spacingTop=-1;spacingLeft=3;spacingRight=3;rotatable=0;labelPosition=right;points=[];portConstraint=eastwest;" vertex="1" parent="EzxEwULjFDBiXr7_w85N-19">
          <mxGeometry y="87" width="270" height="8" as="geometry" />
        </mxCell>
        <mxCell id="EzxEwULjFDBiXr7_w85N-22" value="+contentView():void" style="part=1;html=1;whiteSpace=wrap;resizeHeight=0;strokeColor=none;fillColor=none;align=left;verticalAlign=middle;spacingLeft=4;spacingRight=4;overflow=hidden;rotatable=0;points=[[0,0.5],[1,0.5]];portConstraint=eastwest;swimlaneFillColor=#ffffff;strokeOpacity=100;whiteSpace=wrap;fontSize=16.7;fontColor=#333333;" vertex="1" parent="EzxEwULjFDBiXr7_w85N-19">
          <mxGeometry y="95" width="270" height="73.25" as="geometry" />
        </mxCell>
        <mxCell id="EzxEwULjFDBiXr7_w85N-23" value="DBHelper" style="html=1;overflow=block;blockSpacing=1;whiteSpace=wrap;swimlane;childLayout=stackLayout;horizontal=1;horizontalStack=0;resizeParent=1;resizeParentMax=0;resizeLast=0;collapsible=0;fontStyle=0;marginBottom=0;swimlaneFillColor=#ffffff;startSize=25;whiteSpace=wrap;fontSize=16.7;fontColor=#333333;whiteSpace=wrap;align=center;spacing=0;strokeColor=#5e5e5e;strokeOpacity=100;rounded=1;absoluteArcSize=1;arcSize=9;strokeWidth=2.3;" vertex="1" parent="1">
          <mxGeometry x="1065" y="-645" width="585" height="602" as="geometry" />
        </mxCell>
        <mxCell id="EzxEwULjFDBiXr7_w85N-24" value="&lt;div style=&quot;display: flex; justify-content: center; text-align: center; align-items: baseline; font-size: 0; line-height: 1.25;margin-top: -2px;&quot;&gt;&lt;span&gt;&lt;span style=&quot;font-size:16.7px;color:#333333;&quot;&gt;-UserName:String&#xa;-UserEmail:String&#xa;-UserPassword:String&#xa;&lt;/span&gt;&lt;span style=&quot;font-size:13px;color:#333333;&quot;&gt;+ DATABASE_NAME:String&#xa;+DATABASE_VERSION:int&lt;/span&gt;&lt;/span&gt;&lt;/div&gt;" style="part=1;html=1;whiteSpace=wrap;resizeHeight=0;strokeColor=none;fillColor=none;align=left;verticalAlign=middle;spacingLeft=4;spacingRight=4;overflow=hidden;rotatable=0;points=[[0,0.5],[1,0.5]];portConstraint=eastwest;swimlaneFillColor=#ffffff;strokeOpacity=100;whiteSpace=wrap;fontSize=16.7;fontColor=#333333;" vertex="1" parent="EzxEwULjFDBiXr7_w85N-23">
          <mxGeometry y="25" width="585" height="256" as="geometry" />
        </mxCell>
        <mxCell id="EzxEwULjFDBiXr7_w85N-25" value="" style="line;strokeWidth=1;fillColor=none;align=left;verticalAlign=middle;spacingTop=-1;spacingLeft=3;spacingRight=3;rotatable=0;labelPosition=right;points=[];portConstraint=eastwest;" vertex="1" parent="EzxEwULjFDBiXr7_w85N-23">
          <mxGeometry y="281" width="585" height="8" as="geometry" />
        </mxCell>
        <mxCell id="EzxEwULjFDBiXr7_w85N-26" value="&lt;div style=&quot;display: flex; justify-content: center; text-align: center; align-items: baseline; font-size: 0; line-height: 1.25;margin-top: -2px;&quot;&gt;&lt;span&gt;&lt;span style=&quot;font-size:15px;color:#333333;&quot;&gt;- createTable():void&#xa;+ insertDistributeInfo(name:String, code:String, dept:String):boolean&#xa; + insertArgi(name:String, code:String, supply:String, demand:String, source:String, production:String):boolean&#xa; + insertNbr(name:String, code:String, price:String):boolean&#xa; + insertTcb(name:String, code:String, localprice:String, interprice:String):boolean&#xa; + insertCci(&lt;/span&gt;&lt;span style=&quot;font-size:15.3px;color:#333333;&quot;&gt;name:String, code:String, importedPrice:String, depositePrice:String, importerPrice:String, importerBankAcNo:String&lt;/span&gt;&lt;span style=&quot;font-size:15px;color:#333333;&quot;&gt;):boolean&#xa;+ updateArgi(name:String, code:String, supply:String, demand:String, source:String, production:String):boolean&#xa; + updateNbr(name:String, code:String, price:String):boolean&#xa; + updateTcb(name:String, code:String, localprice:String ,interprice:String):boolean&#xa; + updateCci(&lt;/span&gt;&lt;span style=&quot;font-size:15.3px;color:#333333;&quot;&gt;name:String, code:String, importedPrice:String, depositePrice:String, importerPrice:String, importerBankAcNo:String&lt;/span&gt;&lt;span style=&quot;font-size:15px;color:#333333;&quot;&gt;):boolean&#xa;+ getAllProductNames():List&amp;lt;String&amp;gt;&#xa;+ getAllProdactCodes():List&amp;lt;String&amp;gt;&#xa;&lt;/span&gt;&lt;/span&gt;&lt;/div&gt;" style="part=1;html=1;whiteSpace=wrap;resizeHeight=0;strokeColor=none;fillColor=none;align=left;verticalAlign=middle;spacingLeft=4;spacingRight=4;overflow=hidden;rotatable=0;points=[[0,0.5],[1,0.5]];portConstraint=eastwest;swimlaneFillColor=#ffffff;strokeOpacity=100;whiteSpace=wrap;overflow=block;blockSpacing=1;html=1;fontSize=13;" vertex="1" parent="EzxEwULjFDBiXr7_w85N-23">
          <mxGeometry y="289" width="585" height="313" as="geometry" />
        </mxCell>
        <mxCell id="EzxEwULjFDBiXr7_w85N-27" value="AdminPL" style="html=1;overflow=block;blockSpacing=1;whiteSpace=wrap;swimlane;childLayout=stackLayout;horizontal=1;horizontalStack=0;resizeParent=1;resizeParentMax=0;resizeLast=0;collapsible=0;fontStyle=0;marginBottom=0;swimlaneFillColor=#ffffff;startSize=25;whiteSpace=wrap;fontSize=16.7;fontColor=#333333;whiteSpace=wrap;align=center;spacing=0;strokeColor=#5e5e5e;strokeOpacity=100;rounded=1;absoluteArcSize=1;arcSize=9;strokeWidth=2.3;" vertex="1" parent="1">
          <mxGeometry x="465" y="-829" width="270" height="187.25" as="geometry" />
        </mxCell>
        <mxCell id="EzxEwULjFDBiXr7_w85N-28" value="-distributeInfo:Button&#xa;-statistic:Button&#xa; -action:Button" style="part=1;html=1;whiteSpace=wrap;resizeHeight=0;strokeColor=none;fillColor=none;align=left;verticalAlign=middle;spacingLeft=4;spacingRight=4;overflow=hidden;rotatable=0;points=[[0,0.5],[1,0.5]];portConstraint=eastwest;swimlaneFillColor=#ffffff;strokeOpacity=100;whiteSpace=wrap;fontSize=16.7;fontColor=#333333;" vertex="1" parent="EzxEwULjFDBiXr7_w85N-27">
          <mxGeometry y="25" width="270" height="72" as="geometry" />
        </mxCell>
        <mxCell id="EzxEwULjFDBiXr7_w85N-29" value="" style="line;strokeWidth=1;fillColor=none;align=left;verticalAlign=middle;spacingTop=-1;spacingLeft=3;spacingRight=3;rotatable=0;labelPosition=right;points=[];portConstraint=eastwest;" vertex="1" parent="EzxEwULjFDBiXr7_w85N-27">
          <mxGeometry y="97" width="270" height="8" as="geometry" />
        </mxCell>
        <mxCell id="EzxEwULjFDBiXr7_w85N-30" value="+contentView():void" style="part=1;html=1;whiteSpace=wrap;resizeHeight=0;strokeColor=none;fillColor=none;align=left;verticalAlign=middle;spacingLeft=4;spacingRight=4;overflow=hidden;rotatable=0;points=[[0,0.5],[1,0.5]];portConstraint=eastwest;swimlaneFillColor=#ffffff;strokeOpacity=100;whiteSpace=wrap;fontSize=16.7;fontColor=#333333;" vertex="1" parent="EzxEwULjFDBiXr7_w85N-27">
          <mxGeometry y="105" width="270" height="82.25" as="geometry" />
        </mxCell>
        <mxCell id="EzxEwULjFDBiXr7_w85N-31" value="AgriAL" style="html=1;overflow=block;blockSpacing=1;whiteSpace=wrap;swimlane;childLayout=stackLayout;horizontal=1;horizontalStack=0;resizeParent=1;resizeParentMax=0;resizeLast=0;collapsible=0;fontStyle=0;marginBottom=0;swimlaneFillColor=#ffffff;startSize=25;whiteSpace=wrap;fontSize=16.7;fontColor=#333333;whiteSpace=wrap;align=center;spacing=0;strokeColor=#5e5e5e;strokeOpacity=100;rounded=1;absoluteArcSize=1;arcSize=9;strokeWidth=2.3;" vertex="1" parent="1">
          <mxGeometry x="1035" y="270" width="270" height="250" as="geometry" />
        </mxCell>
        <mxCell id="EzxEwULjFDBiXr7_w85N-32" value="-demand:String&#xa;-supply:String&#xa;-Source:String&#xa;-product:String&#xa;-select_prd:Spinner&#xa;-select_prdCode:Spinner" style="part=1;html=1;whiteSpace=wrap;resizeHeight=0;strokeColor=none;fillColor=none;align=left;verticalAlign=middle;spacingLeft=4;spacingRight=4;overflow=hidden;rotatable=0;points=[[0,0.5],[1,0.5]];portConstraint=eastwest;swimlaneFillColor=#ffffff;strokeOpacity=100;whiteSpace=wrap;fontSize=16.7;fontColor=#333333;" vertex="1" parent="EzxEwULjFDBiXr7_w85N-31">
          <mxGeometry y="25" width="270" height="135" as="geometry" />
        </mxCell>
        <mxCell id="EzxEwULjFDBiXr7_w85N-33" value="" style="line;strokeWidth=1;fillColor=none;align=left;verticalAlign=middle;spacingTop=-1;spacingLeft=3;spacingRight=3;rotatable=0;labelPosition=right;points=[];portConstraint=eastwest;" vertex="1" parent="EzxEwULjFDBiXr7_w85N-31">
          <mxGeometry y="160" width="270" height="8" as="geometry" />
        </mxCell>
        <mxCell id="EzxEwULjFDBiXr7_w85N-34" value="+addData():void&#xa;+updateData():void" style="part=1;html=1;whiteSpace=wrap;resizeHeight=0;strokeColor=none;fillColor=none;align=left;verticalAlign=middle;spacingLeft=4;spacingRight=4;overflow=hidden;rotatable=0;points=[[0,0.5],[1,0.5]];portConstraint=eastwest;swimlaneFillColor=#ffffff;strokeOpacity=100;whiteSpace=wrap;fontSize=16.7;fontColor=#333333;" vertex="1" parent="EzxEwULjFDBiXr7_w85N-31">
          <mxGeometry y="168" width="270" height="82" as="geometry" />
        </mxCell>
        <mxCell id="EzxEwULjFDBiXr7_w85N-35" value="AgriPL" style="html=1;overflow=block;blockSpacing=1;whiteSpace=wrap;swimlane;childLayout=stackLayout;horizontal=1;horizontalStack=0;resizeParent=1;resizeParentMax=0;resizeLast=0;collapsible=0;fontStyle=0;marginBottom=0;swimlaneFillColor=#ffffff;startSize=25;whiteSpace=wrap;fontSize=16.7;fontColor=#333333;whiteSpace=wrap;align=left;spacing=0;strokeColor=#5e5e5e;strokeOpacity=100;rounded=1;absoluteArcSize=1;arcSize=9;strokeWidth=2.3;" vertex="1" parent="1">
          <mxGeometry x="-225" y="295" width="270" height="207.25" as="geometry" />
        </mxCell>
        <mxCell id="EzxEwULjFDBiXr7_w85N-36" value="-btn_add:Button&#xa;-btn_update:Button" style="part=1;html=1;whiteSpace=wrap;resizeHeight=0;strokeColor=none;fillColor=none;align=left;verticalAlign=middle;spacingLeft=4;spacingRight=4;overflow=hidden;rotatable=0;points=[[0,0.5],[1,0.5]];portConstraint=eastwest;swimlaneFillColor=#ffffff;strokeOpacity=100;whiteSpace=wrap;fontSize=16.7;fontColor=#333333;" vertex="1" parent="EzxEwULjFDBiXr7_w85N-35">
          <mxGeometry y="25" width="270" height="82" as="geometry" />
        </mxCell>
        <mxCell id="EzxEwULjFDBiXr7_w85N-37" value="" style="line;strokeWidth=1;fillColor=none;align=left;verticalAlign=middle;spacingTop=-1;spacingLeft=3;spacingRight=3;rotatable=0;labelPosition=right;points=[];portConstraint=eastwest;" vertex="1" parent="EzxEwULjFDBiXr7_w85N-35">
          <mxGeometry y="107" width="270" height="8" as="geometry" />
        </mxCell>
        <mxCell id="EzxEwULjFDBiXr7_w85N-38" value="+AgriPL()&#xa;+show():void&#xa;+contentView():void" style="part=1;html=1;whiteSpace=wrap;resizeHeight=0;strokeColor=none;fillColor=none;align=left;verticalAlign=middle;spacingLeft=4;spacingRight=4;overflow=hidden;rotatable=0;points=[[0,0.5],[1,0.5]];portConstraint=eastwest;swimlaneFillColor=#ffffff;strokeOpacity=100;whiteSpace=wrap;fontSize=16.7;fontColor=#333333;" vertex="1" parent="EzxEwULjFDBiXr7_w85N-35">
          <mxGeometry y="115" width="270" height="92.25" as="geometry" />
        </mxCell>
        <mxCell id="EzxEwULjFDBiXr7_w85N-163" style="rounded=0;orthogonalLoop=1;jettySize=auto;html=1;exitX=0.5;exitY=0;exitDx=0;exitDy=0;dashed=1;startArrow=none;startFill=0;endArrow=none;endFill=0;" edge="1" parent="1" source="EzxEwULjFDBiXr7_w85N-39">
          <mxGeometry relative="1" as="geometry">
            <mxPoint x="-390" y="240" as="targetPoint" />
          </mxGeometry>
        </mxCell>
        <mxCell id="EzxEwULjFDBiXr7_w85N-39" value="TCBPL" style="html=1;overflow=block;blockSpacing=1;whiteSpace=wrap;swimlane;childLayout=stackLayout;horizontal=1;horizontalStack=0;resizeParent=1;resizeParentMax=0;resizeLast=0;collapsible=0;fontStyle=0;marginBottom=0;swimlaneFillColor=#ffffff;startSize=25;whiteSpace=wrap;fontSize=16.7;fontColor=#333333;whiteSpace=wrap;align=left;spacing=0;strokeColor=#5e5e5e;strokeOpacity=100;rounded=1;absoluteArcSize=1;arcSize=9;strokeWidth=2.3;" vertex="1" parent="1">
          <mxGeometry x="-525" y="291" width="270" height="207.25" as="geometry" />
        </mxCell>
        <mxCell id="EzxEwULjFDBiXr7_w85N-40" value="-btn_add:Button&#xa;-btn_update:Button" style="part=1;html=1;whiteSpace=wrap;resizeHeight=0;strokeColor=none;fillColor=none;align=left;verticalAlign=middle;spacingLeft=4;spacingRight=4;overflow=hidden;rotatable=0;points=[[0,0.5],[1,0.5]];portConstraint=eastwest;swimlaneFillColor=#ffffff;strokeOpacity=100;whiteSpace=wrap;fontSize=16.7;fontColor=#333333;" vertex="1" parent="EzxEwULjFDBiXr7_w85N-39">
          <mxGeometry y="25" width="270" height="82" as="geometry" />
        </mxCell>
        <mxCell id="EzxEwULjFDBiXr7_w85N-41" value="" style="line;strokeWidth=1;fillColor=none;align=left;verticalAlign=middle;spacingTop=-1;spacingLeft=3;spacingRight=3;rotatable=0;labelPosition=right;points=[];portConstraint=eastwest;" vertex="1" parent="EzxEwULjFDBiXr7_w85N-39">
          <mxGeometry y="107" width="270" height="8" as="geometry" />
        </mxCell>
        <mxCell id="EzxEwULjFDBiXr7_w85N-42" value="+TCBPL()&#xa;+show():void&#xa;+contentView():void" style="part=1;html=1;whiteSpace=wrap;resizeHeight=0;strokeColor=none;fillColor=none;align=left;verticalAlign=middle;spacingLeft=4;spacingRight=4;overflow=hidden;rotatable=0;points=[[0,0.5],[1,0.5]];portConstraint=eastwest;swimlaneFillColor=#ffffff;strokeOpacity=100;whiteSpace=wrap;fontSize=16.7;fontColor=#333333;" vertex="1" parent="EzxEwULjFDBiXr7_w85N-39">
          <mxGeometry y="115" width="270" height="92.25" as="geometry" />
        </mxCell>
        <mxCell id="EzxEwULjFDBiXr7_w85N-43" value="CCIPL" style="html=1;overflow=block;blockSpacing=1;whiteSpace=wrap;swimlane;childLayout=stackLayout;horizontal=1;horizontalStack=0;resizeParent=1;resizeParentMax=0;resizeLast=0;collapsible=0;fontStyle=0;marginBottom=0;swimlaneFillColor=#ffffff;startSize=25;whiteSpace=wrap;fontSize=16.7;fontColor=#333333;whiteSpace=wrap;align=center;spacing=0;strokeColor=#5e5e5e;strokeOpacity=100;rounded=1;absoluteArcSize=1;arcSize=9;strokeWidth=2.3;" vertex="1" parent="1">
          <mxGeometry x="60" y="295" width="270" height="207.25" as="geometry" />
        </mxCell>
        <mxCell id="EzxEwULjFDBiXr7_w85N-44" value="-btn_add:Button&#xa;-btn_update:Button" style="part=1;html=1;whiteSpace=wrap;resizeHeight=0;strokeColor=none;fillColor=none;align=left;verticalAlign=middle;spacingLeft=4;spacingRight=4;overflow=hidden;rotatable=0;points=[[0,0.5],[1,0.5]];portConstraint=eastwest;swimlaneFillColor=#ffffff;strokeOpacity=100;whiteSpace=wrap;fontSize=16.7;fontColor=#333333;" vertex="1" parent="EzxEwULjFDBiXr7_w85N-43">
          <mxGeometry y="25" width="270" height="82" as="geometry" />
        </mxCell>
        <mxCell id="EzxEwULjFDBiXr7_w85N-45" value="" style="line;strokeWidth=1;fillColor=none;align=left;verticalAlign=middle;spacingTop=-1;spacingLeft=3;spacingRight=3;rotatable=0;labelPosition=right;points=[];portConstraint=eastwest;" vertex="1" parent="EzxEwULjFDBiXr7_w85N-43">
          <mxGeometry y="107" width="270" height="8" as="geometry" />
        </mxCell>
        <mxCell id="EzxEwULjFDBiXr7_w85N-46" value="+CCIPL()&#xa;+show():void&#xa;+contentView():void" style="part=1;html=1;whiteSpace=wrap;resizeHeight=0;strokeColor=none;fillColor=none;align=left;verticalAlign=middle;spacingLeft=4;spacingRight=4;overflow=hidden;rotatable=0;points=[[0,0.5],[1,0.5]];portConstraint=eastwest;swimlaneFillColor=#ffffff;strokeOpacity=100;whiteSpace=wrap;fontSize=16.7;fontColor=#333333;" vertex="1" parent="EzxEwULjFDBiXr7_w85N-43">
          <mxGeometry y="115" width="270" height="92.25" as="geometry" />
        </mxCell>
        <mxCell id="EzxEwULjFDBiXr7_w85N-47" value="TCBAL" style="html=1;overflow=block;blockSpacing=1;whiteSpace=wrap;swimlane;childLayout=stackLayout;horizontal=1;horizontalStack=0;resizeParent=1;resizeParentMax=0;resizeLast=0;collapsible=0;fontStyle=0;marginBottom=0;swimlaneFillColor=#ffffff;startSize=25;whiteSpace=wrap;fontSize=16.7;fontColor=#333333;whiteSpace=wrap;align=center;spacing=0;strokeColor=#5e5e5e;strokeOpacity=100;rounded=1;absoluteArcSize=1;arcSize=9;strokeWidth=2.3;" vertex="1" parent="1">
          <mxGeometry x="735" y="275" width="270" height="227.25" as="geometry" />
        </mxCell>
        <mxCell id="EzxEwULjFDBiXr7_w85N-48" value="-local_price:String&#xa;-international_price:String&#xa;-select_prd:Spinner&#xa;-select_prdCode:Spinner" style="part=1;html=1;whiteSpace=wrap;resizeHeight=0;strokeColor=none;fillColor=none;align=left;verticalAlign=middle;spacingLeft=4;spacingRight=4;overflow=hidden;rotatable=0;points=[[0,0.5],[1,0.5]];portConstraint=eastwest;swimlaneFillColor=#ffffff;strokeOpacity=100;whiteSpace=wrap;fontSize=16.7;fontColor=#333333;" vertex="1" parent="EzxEwULjFDBiXr7_w85N-47">
          <mxGeometry y="25" width="270" height="92" as="geometry" />
        </mxCell>
        <mxCell id="EzxEwULjFDBiXr7_w85N-49" value="" style="line;strokeWidth=1;fillColor=none;align=left;verticalAlign=middle;spacingTop=-1;spacingLeft=3;spacingRight=3;rotatable=0;labelPosition=right;points=[];portConstraint=eastwest;" vertex="1" parent="EzxEwULjFDBiXr7_w85N-47">
          <mxGeometry y="117" width="270" height="8" as="geometry" />
        </mxCell>
        <mxCell id="EzxEwULjFDBiXr7_w85N-50" value="+addData():void&#xa;+updateData():void" style="part=1;html=1;whiteSpace=wrap;resizeHeight=0;strokeColor=none;fillColor=none;align=left;verticalAlign=middle;spacingLeft=4;spacingRight=4;overflow=hidden;rotatable=0;points=[[0,0.5],[1,0.5]];portConstraint=eastwest;swimlaneFillColor=#ffffff;strokeOpacity=100;whiteSpace=wrap;fontSize=16.7;fontColor=#333333;" vertex="1" parent="EzxEwULjFDBiXr7_w85N-47">
          <mxGeometry y="125" width="270" height="102.25" as="geometry" />
        </mxCell>
        <mxCell id="EzxEwULjFDBiXr7_w85N-51" value="NBRPL" style="html=1;overflow=block;blockSpacing=1;whiteSpace=wrap;swimlane;childLayout=stackLayout;horizontal=1;horizontalStack=0;resizeParent=1;resizeParentMax=0;resizeLast=0;collapsible=0;fontStyle=0;marginBottom=0;swimlaneFillColor=#ffffff;startSize=25;whiteSpace=wrap;fontSize=16.7;fontColor=#333333;whiteSpace=wrap;align=left;spacing=0;strokeColor=#5e5e5e;strokeOpacity=100;rounded=1;absoluteArcSize=1;arcSize=9;strokeWidth=2.3;" vertex="1" parent="1">
          <mxGeometry x="-840" y="280" width="270" height="207.25" as="geometry" />
        </mxCell>
        <mxCell id="EzxEwULjFDBiXr7_w85N-52" value="-btn_add:Button&#xa;-btn_update:Button" style="part=1;html=1;whiteSpace=wrap;resizeHeight=0;strokeColor=none;fillColor=none;align=left;verticalAlign=middle;spacingLeft=4;spacingRight=4;overflow=hidden;rotatable=0;points=[[0,0.5],[1,0.5]];portConstraint=eastwest;swimlaneFillColor=#ffffff;strokeOpacity=100;whiteSpace=wrap;fontSize=16.7;fontColor=#333333;" vertex="1" parent="EzxEwULjFDBiXr7_w85N-51">
          <mxGeometry y="25" width="270" height="82" as="geometry" />
        </mxCell>
        <mxCell id="EzxEwULjFDBiXr7_w85N-53" value="" style="line;strokeWidth=1;fillColor=none;align=left;verticalAlign=middle;spacingTop=-1;spacingLeft=3;spacingRight=3;rotatable=0;labelPosition=right;points=[];portConstraint=eastwest;" vertex="1" parent="EzxEwULjFDBiXr7_w85N-51">
          <mxGeometry y="107" width="270" height="8" as="geometry" />
        </mxCell>
        <mxCell id="EzxEwULjFDBiXr7_w85N-54" value="+NBRPL()&#xa;+show():void&#xa;+contentView():void" style="part=1;html=1;whiteSpace=wrap;resizeHeight=0;strokeColor=none;fillColor=none;align=left;verticalAlign=middle;spacingLeft=4;spacingRight=4;overflow=hidden;rotatable=0;points=[[0,0.5],[1,0.5]];portConstraint=eastwest;swimlaneFillColor=#ffffff;strokeOpacity=100;whiteSpace=wrap;fontSize=16.7;fontColor=#333333;" vertex="1" parent="EzxEwULjFDBiXr7_w85N-51">
          <mxGeometry y="115" width="270" height="92.25" as="geometry" />
        </mxCell>
        <mxCell id="EzxEwULjFDBiXr7_w85N-55" value="NBRAL" style="html=1;overflow=block;blockSpacing=1;whiteSpace=wrap;swimlane;childLayout=stackLayout;horizontal=1;horizontalStack=0;resizeParent=1;resizeParentMax=0;resizeLast=0;collapsible=0;fontStyle=0;marginBottom=0;swimlaneFillColor=#ffffff;startSize=25;whiteSpace=wrap;fontSize=16.7;fontColor=#333333;whiteSpace=wrap;align=center;spacing=0;strokeColor=#5e5e5e;strokeOpacity=100;rounded=1;absoluteArcSize=1;arcSize=9;strokeWidth=2.3;" vertex="1" parent="1">
          <mxGeometry x="435" y="285" width="270" height="207.25" as="geometry" />
        </mxCell>
        <mxCell id="EzxEwULjFDBiXr7_w85N-56" value="-import_price:String&#xa;-select_prd:Spinner&#xa;-select_prdCode:Spinner" style="part=1;html=1;whiteSpace=wrap;resizeHeight=0;strokeColor=none;fillColor=none;align=left;verticalAlign=middle;spacingLeft=4;spacingRight=4;overflow=hidden;rotatable=0;points=[[0,0.5],[1,0.5]];portConstraint=eastwest;swimlaneFillColor=#ffffff;strokeOpacity=100;whiteSpace=wrap;fontSize=16.7;fontColor=#333333;" vertex="1" parent="EzxEwULjFDBiXr7_w85N-55">
          <mxGeometry y="25" width="270" height="82" as="geometry" />
        </mxCell>
        <mxCell id="EzxEwULjFDBiXr7_w85N-57" value="" style="line;strokeWidth=1;fillColor=none;align=left;verticalAlign=middle;spacingTop=-1;spacingLeft=3;spacingRight=3;rotatable=0;labelPosition=right;points=[];portConstraint=eastwest;" vertex="1" parent="EzxEwULjFDBiXr7_w85N-55">
          <mxGeometry y="107" width="270" height="8" as="geometry" />
        </mxCell>
        <mxCell id="EzxEwULjFDBiXr7_w85N-58" value="+addData():void&#xa;+updateData():void" style="part=1;html=1;whiteSpace=wrap;resizeHeight=0;strokeColor=none;fillColor=none;align=left;verticalAlign=middle;spacingLeft=4;spacingRight=4;overflow=hidden;rotatable=0;points=[[0,0.5],[1,0.5]];portConstraint=eastwest;swimlaneFillColor=#ffffff;strokeOpacity=100;whiteSpace=wrap;fontSize=16.7;fontColor=#333333;" vertex="1" parent="EzxEwULjFDBiXr7_w85N-55">
          <mxGeometry y="115" width="270" height="92.25" as="geometry" />
        </mxCell>
        <mxCell id="EzxEwULjFDBiXr7_w85N-59" value="CCIAL" style="html=1;overflow=block;blockSpacing=1;whiteSpace=wrap;swimlane;childLayout=stackLayout;horizontal=1;horizontalStack=0;resizeParent=1;resizeParentMax=0;resizeLast=0;collapsible=0;fontStyle=0;marginBottom=0;swimlaneFillColor=#ffffff;startSize=25;whiteSpace=wrap;fontSize=16.7;fontColor=#333333;whiteSpace=wrap;align=left;spacing=0;strokeColor=#5e5e5e;strokeOpacity=100;rounded=1;absoluteArcSize=1;arcSize=9;strokeWidth=2.3;" vertex="1" parent="1">
          <mxGeometry x="1380" y="270" width="270" height="250" as="geometry" />
        </mxCell>
        <mxCell id="EzxEwULjFDBiXr7_w85N-60" value="-import_money:String&#xa;-deposit_money:String&#xa;-importer_name:String&#xa;-importer_bank_acc:String&#xa;-select_prd:Spinner&#xa;-select_prdCode:Spinner" style="part=1;html=1;whiteSpace=wrap;resizeHeight=0;strokeColor=none;fillColor=none;align=left;verticalAlign=middle;spacingLeft=4;spacingRight=4;overflow=hidden;rotatable=0;points=[[0,0.5],[1,0.5]];portConstraint=eastwest;swimlaneFillColor=#ffffff;strokeOpacity=100;whiteSpace=wrap;fontSize=16.7;fontColor=#333333;" vertex="1" parent="EzxEwULjFDBiXr7_w85N-59">
          <mxGeometry y="25" width="270" height="135" as="geometry" />
        </mxCell>
        <mxCell id="EzxEwULjFDBiXr7_w85N-61" value="" style="line;strokeWidth=1;fillColor=none;align=left;verticalAlign=middle;spacingTop=-1;spacingLeft=3;spacingRight=3;rotatable=0;labelPosition=right;points=[];portConstraint=eastwest;" vertex="1" parent="EzxEwULjFDBiXr7_w85N-59">
          <mxGeometry y="160" width="270" height="8" as="geometry" />
        </mxCell>
        <mxCell id="EzxEwULjFDBiXr7_w85N-62" value="+addData():void&#xa;+updateData():void" style="part=1;html=1;whiteSpace=wrap;resizeHeight=0;strokeColor=none;fillColor=none;align=left;verticalAlign=middle;spacingLeft=4;spacingRight=4;overflow=hidden;rotatable=0;points=[[0,0.5],[1,0.5]];portConstraint=eastwest;swimlaneFillColor=#ffffff;strokeOpacity=100;whiteSpace=wrap;fontSize=16.7;fontColor=#333333;" vertex="1" parent="EzxEwULjFDBiXr7_w85N-59">
          <mxGeometry y="168" width="270" height="82" as="geometry" />
        </mxCell>
        <mxCell id="EzxEwULjFDBiXr7_w85N-63" value="StatisticsPL" style="html=1;overflow=block;blockSpacing=1;whiteSpace=wrap;swimlane;childLayout=stackLayout;horizontal=1;horizontalStack=0;resizeParent=1;resizeParentMax=0;resizeLast=0;collapsible=0;fontStyle=0;marginBottom=0;swimlaneFillColor=#ffffff;startSize=25;whiteSpace=wrap;fontSize=16.7;fontColor=#333333;whiteSpace=wrap;align=center;spacing=0;strokeColor=#5e5e5e;strokeOpacity=100;rounded=1;absoluteArcSize=1;arcSize=9;strokeWidth=2.3;" vertex="1" parent="1">
          <mxGeometry x="105" y="-810" width="270" height="148.25" as="geometry" />
        </mxCell>
        <mxCell id="EzxEwULjFDBiXr7_w85N-64" value="" style="part=1;html=1;whiteSpace=wrap;resizeHeight=0;strokeColor=none;fillColor=none;align=left;verticalAlign=middle;spacingLeft=4;spacingRight=4;overflow=hidden;rotatable=0;points=[[0,0.5],[1,0.5]];portConstraint=eastwest;swimlaneFillColor=#ffffff;strokeOpacity=100;whiteSpace=wrap;fontSize=13;" vertex="1" parent="EzxEwULjFDBiXr7_w85N-63">
          <mxGeometry y="25" width="270" height="52" as="geometry" />
        </mxCell>
        <mxCell id="EzxEwULjFDBiXr7_w85N-65" value="" style="line;strokeWidth=1;fillColor=none;align=left;verticalAlign=middle;spacingTop=-1;spacingLeft=3;spacingRight=3;rotatable=0;labelPosition=right;points=[];portConstraint=eastwest;" vertex="1" parent="EzxEwULjFDBiXr7_w85N-63">
          <mxGeometry y="77" width="270" height="8" as="geometry" />
        </mxCell>
        <mxCell id="EzxEwULjFDBiXr7_w85N-66" value="+showStatistics():void&#xa;+contentView():void" style="part=1;html=1;whiteSpace=wrap;resizeHeight=0;strokeColor=none;fillColor=none;align=left;verticalAlign=middle;spacingLeft=4;spacingRight=4;overflow=hidden;rotatable=0;points=[[0,0.5],[1,0.5]];portConstraint=eastwest;swimlaneFillColor=#ffffff;strokeOpacity=100;whiteSpace=wrap;fontSize=16.7;fontColor=#333333;" vertex="1" parent="EzxEwULjFDBiXr7_w85N-63">
          <mxGeometry y="85" width="270" height="63.25" as="geometry" />
        </mxCell>
        <mxCell id="EzxEwULjFDBiXr7_w85N-67" value="StatisticAL" style="html=1;overflow=block;blockSpacing=1;whiteSpace=wrap;swimlane;childLayout=stackLayout;horizontal=1;horizontalStack=0;resizeParent=1;resizeParentMax=0;resizeLast=0;collapsible=0;fontStyle=0;marginBottom=0;swimlaneFillColor=#ffffff;startSize=25;whiteSpace=wrap;fontSize=16.7;fontColor=#333333;whiteSpace=wrap;align=center;spacing=0;strokeColor=#5e5e5e;strokeOpacity=100;rounded=1;absoluteArcSize=1;arcSize=9;strokeWidth=2.3;" vertex="1" parent="1">
          <mxGeometry x="105" y="-985" width="270" height="148.25" as="geometry" />
        </mxCell>
        <mxCell id="EzxEwULjFDBiXr7_w85N-68" value="-prd_Statistics:Hashtable" style="part=1;html=1;whiteSpace=wrap;resizeHeight=0;strokeColor=none;fillColor=none;align=left;verticalAlign=middle;spacingLeft=4;spacingRight=4;overflow=hidden;rotatable=0;points=[[0,0.5],[1,0.5]];portConstraint=eastwest;swimlaneFillColor=#ffffff;strokeOpacity=100;whiteSpace=wrap;fontSize=16.7;fontColor=#333333;" vertex="1" parent="EzxEwULjFDBiXr7_w85N-67">
          <mxGeometry y="25" width="270" height="52" as="geometry" />
        </mxCell>
        <mxCell id="EzxEwULjFDBiXr7_w85N-69" value="" style="line;strokeWidth=1;fillColor=none;align=left;verticalAlign=middle;spacingTop=-1;spacingLeft=3;spacingRight=3;rotatable=0;labelPosition=right;points=[];portConstraint=eastwest;" vertex="1" parent="EzxEwULjFDBiXr7_w85N-67">
          <mxGeometry y="77" width="270" height="8" as="geometry" />
        </mxCell>
        <mxCell id="EzxEwULjFDBiXr7_w85N-70" value="+getStatistics():void" style="part=1;html=1;whiteSpace=wrap;resizeHeight=0;strokeColor=none;fillColor=none;align=left;verticalAlign=middle;spacingLeft=4;spacingRight=4;overflow=hidden;rotatable=0;points=[[0,0.5],[1,0.5]];portConstraint=eastwest;swimlaneFillColor=#ffffff;strokeOpacity=100;whiteSpace=wrap;fontSize=16.7;fontColor=#333333;" vertex="1" parent="EzxEwULjFDBiXr7_w85N-67">
          <mxGeometry y="85" width="270" height="63.25" as="geometry" />
        </mxCell>
        <mxCell id="EzxEwULjFDBiXr7_w85N-71" value="DistributePL" style="html=1;overflow=block;blockSpacing=1;whiteSpace=wrap;swimlane;childLayout=stackLayout;horizontal=1;horizontalStack=0;resizeParent=1;resizeParentMax=0;resizeLast=0;collapsible=0;fontStyle=0;marginBottom=0;swimlaneFillColor=#ffffff;startSize=25;whiteSpace=wrap;fontSize=16.7;fontColor=#333333;whiteSpace=wrap;align=center;spacing=0;strokeColor=#5e5e5e;strokeOpacity=100;rounded=1;absoluteArcSize=1;arcSize=9;strokeWidth=2.3;" vertex="1" parent="1">
          <mxGeometry x="915" y="-855" width="270" height="148.25" as="geometry" />
        </mxCell>
        <mxCell id="EzxEwULjFDBiXr7_w85N-72" value="-btn_send:Button" style="part=1;html=1;whiteSpace=wrap;resizeHeight=0;strokeColor=none;fillColor=none;align=left;verticalAlign=middle;spacingLeft=4;spacingRight=4;overflow=hidden;rotatable=0;points=[[0,0.5],[1,0.5]];portConstraint=eastwest;swimlaneFillColor=#ffffff;strokeOpacity=100;whiteSpace=wrap;fontSize=16.7;fontColor=#333333;" vertex="1" parent="EzxEwULjFDBiXr7_w85N-71">
          <mxGeometry y="25" width="270" height="52" as="geometry" />
        </mxCell>
        <mxCell id="EzxEwULjFDBiXr7_w85N-73" value="" style="line;strokeWidth=1;fillColor=none;align=left;verticalAlign=middle;spacingTop=-1;spacingLeft=3;spacingRight=3;rotatable=0;labelPosition=right;points=[];portConstraint=eastwest;" vertex="1" parent="EzxEwULjFDBiXr7_w85N-71">
          <mxGeometry y="77" width="270" height="8" as="geometry" />
        </mxCell>
        <mxCell id="EzxEwULjFDBiXr7_w85N-74" value="+contentView():void" style="part=1;html=1;whiteSpace=wrap;resizeHeight=0;strokeColor=none;fillColor=none;align=left;verticalAlign=middle;spacingLeft=4;spacingRight=4;overflow=hidden;rotatable=0;points=[[0,0.5],[1,0.5]];portConstraint=eastwest;swimlaneFillColor=#ffffff;strokeOpacity=100;whiteSpace=wrap;fontSize=16.7;fontColor=#333333;" vertex="1" parent="EzxEwULjFDBiXr7_w85N-71">
          <mxGeometry y="85" width="270" height="63.25" as="geometry" />
        </mxCell>
        <mxCell id="EzxEwULjFDBiXr7_w85N-75" value="DistributeAL" style="html=1;overflow=block;blockSpacing=1;whiteSpace=wrap;swimlane;childLayout=stackLayout;horizontal=1;horizontalStack=0;resizeParent=1;resizeParentMax=0;resizeLast=0;collapsible=0;fontStyle=0;marginBottom=0;swimlaneFillColor=#ffffff;startSize=25;whiteSpace=wrap;fontSize=16.7;fontColor=#333333;whiteSpace=wrap;align=left;spacing=0;strokeColor=#5e5e5e;strokeOpacity=100;rounded=1;absoluteArcSize=1;arcSize=9;strokeWidth=2.3;" vertex="1" parent="1">
          <mxGeometry x="1440" y="-1200" width="435" height="207.25" as="geometry" />
        </mxCell>
        <mxCell id="EzxEwULjFDBiXr7_w85N-76" value="-product_Name:String&#xa;-product_code:String&#xa;-select_dept:Spinner" style="part=1;html=1;whiteSpace=wrap;resizeHeight=0;strokeColor=none;fillColor=none;align=left;verticalAlign=middle;spacingLeft=4;spacingRight=4;overflow=hidden;rotatable=0;points=[[0,0.5],[1,0.5]];portConstraint=eastwest;swimlaneFillColor=#ffffff;strokeOpacity=100;whiteSpace=wrap;fontSize=16.7;fontColor=#333333;" vertex="1" parent="EzxEwULjFDBiXr7_w85N-75">
          <mxGeometry y="25" width="435" height="82" as="geometry" />
        </mxCell>
        <mxCell id="EzxEwULjFDBiXr7_w85N-77" value="" style="line;strokeWidth=1;fillColor=none;align=left;verticalAlign=middle;spacingTop=-1;spacingLeft=3;spacingRight=3;rotatable=0;labelPosition=right;points=[];portConstraint=eastwest;" vertex="1" parent="EzxEwULjFDBiXr7_w85N-75">
          <mxGeometry y="107" width="435" height="8" as="geometry" />
        </mxCell>
        <mxCell id="EzxEwULjFDBiXr7_w85N-78" value="+sendInfo(productName:String,productCode:String):void&#xa;+send():boolean" style="part=1;html=1;whiteSpace=wrap;resizeHeight=0;strokeColor=none;fillColor=none;align=left;verticalAlign=middle;spacingLeft=4;spacingRight=4;overflow=hidden;rotatable=0;points=[[0,0.5],[1,0.5]];portConstraint=eastwest;swimlaneFillColor=#ffffff;strokeOpacity=100;whiteSpace=wrap;fontSize=16.7;fontColor=#333333;" vertex="1" parent="EzxEwULjFDBiXr7_w85N-75">
          <mxGeometry y="115" width="435" height="92.25" as="geometry" />
        </mxCell>
        <mxCell id="EzxEwULjFDBiXr7_w85N-79" value="ActionPL" style="html=1;overflow=block;blockSpacing=1;whiteSpace=wrap;swimlane;childLayout=stackLayout;horizontal=1;horizontalStack=0;resizeParent=1;resizeParentMax=0;resizeLast=0;collapsible=0;fontStyle=0;marginBottom=0;swimlaneFillColor=#ffffff;startSize=25;whiteSpace=wrap;fontSize=16.7;fontColor=#333333;whiteSpace=wrap;align=center;spacing=0;strokeColor=#5e5e5e;strokeOpacity=100;rounded=1;absoluteArcSize=1;arcSize=9;strokeWidth=2.3;" vertex="1" parent="1">
          <mxGeometry x="540" y="-1005" width="270" height="168.25" as="geometry" />
        </mxCell>
        <mxCell id="EzxEwULjFDBiXr7_w85N-80" value="" style="part=1;html=1;whiteSpace=wrap;resizeHeight=0;strokeColor=none;fillColor=none;align=left;verticalAlign=middle;spacingLeft=4;spacingRight=4;overflow=hidden;rotatable=0;points=[[0,0.5],[1,0.5]];portConstraint=eastwest;swimlaneFillColor=#ffffff;strokeOpacity=100;whiteSpace=wrap;fontSize=13;" vertex="1" parent="EzxEwULjFDBiXr7_w85N-79">
          <mxGeometry y="25" width="270" height="62" as="geometry" />
        </mxCell>
        <mxCell id="EzxEwULjFDBiXr7_w85N-81" value="" style="line;strokeWidth=1;fillColor=none;align=left;verticalAlign=middle;spacingTop=-1;spacingLeft=3;spacingRight=3;rotatable=0;labelPosition=right;points=[];portConstraint=eastwest;" vertex="1" parent="EzxEwULjFDBiXr7_w85N-79">
          <mxGeometry y="87" width="270" height="8" as="geometry" />
        </mxCell>
        <mxCell id="EzxEwULjFDBiXr7_w85N-82" value="+productInfo():void&#xa;+contentView():void" style="part=1;html=1;whiteSpace=wrap;resizeHeight=0;strokeColor=none;fillColor=none;align=left;verticalAlign=middle;spacingLeft=4;spacingRight=4;overflow=hidden;rotatable=0;points=[[0,0.5],[1,0.5]];portConstraint=eastwest;swimlaneFillColor=#ffffff;strokeOpacity=100;whiteSpace=wrap;fontSize=16.7;fontColor=#333333;" vertex="1" parent="EzxEwULjFDBiXr7_w85N-79">
          <mxGeometry y="95" width="270" height="73.25" as="geometry" />
        </mxCell>
        <mxCell id="EzxEwULjFDBiXr7_w85N-83" value="ActionAL" style="html=1;overflow=block;blockSpacing=1;whiteSpace=wrap;swimlane;childLayout=stackLayout;horizontal=1;horizontalStack=0;resizeParent=1;resizeParentMax=0;resizeLast=0;collapsible=0;fontStyle=0;marginBottom=0;swimlaneFillColor=#ffffff;startSize=25;whiteSpace=wrap;fontSize=16.7;fontColor=#333333;whiteSpace=wrap;align=center;spacing=0;strokeColor=#5e5e5e;strokeOpacity=100;rounded=1;absoluteArcSize=1;arcSize=9;strokeWidth=2.3;" vertex="1" parent="1">
          <mxGeometry x="450" y="-1232" width="360" height="207.25" as="geometry" />
        </mxCell>
        <mxCell id="EzxEwULjFDBiXr7_w85N-84" value="-product:List&amp;lt;productInfo&amp;gt;&#xa;-productName:List&amp;lt;String&amp;gt;&#xa;-productCode:List&amp;lt;String&amp;gt;&#xa;" style="part=1;html=1;whiteSpace=wrap;resizeHeight=0;strokeColor=none;fillColor=none;align=left;verticalAlign=middle;spacingLeft=4;spacingRight=4;overflow=hidden;rotatable=0;points=[[0,0.5],[1,0.5]];portConstraint=eastwest;swimlaneFillColor=#ffffff;strokeOpacity=100;whiteSpace=wrap;fontSize=16.7;fontColor=#333333;" vertex="1" parent="EzxEwULjFDBiXr7_w85N-83">
          <mxGeometry y="25" width="360" height="82" as="geometry" />
        </mxCell>
        <mxCell id="EzxEwULjFDBiXr7_w85N-85" value="" style="line;strokeWidth=1;fillColor=none;align=left;verticalAlign=middle;spacingTop=-1;spacingLeft=3;spacingRight=3;rotatable=0;labelPosition=right;points=[];portConstraint=eastwest;" vertex="1" parent="EzxEwULjFDBiXr7_w85N-83">
          <mxGeometry y="107" width="360" height="8" as="geometry" />
        </mxCell>
        <mxCell id="EzxEwULjFDBiXr7_w85N-86" value="+takeAction(productCode:List&amp;lt;String&amp;gt;):String" style="part=1;html=1;whiteSpace=wrap;resizeHeight=0;strokeColor=none;fillColor=none;align=left;verticalAlign=middle;spacingLeft=4;spacingRight=4;overflow=hidden;rotatable=0;points=[[0,0.5],[1,0.5]];portConstraint=eastwest;swimlaneFillColor=#ffffff;strokeOpacity=100;whiteSpace=wrap;fontSize=16.7;fontColor=#333333;" vertex="1" parent="EzxEwULjFDBiXr7_w85N-83">
          <mxGeometry y="115" width="360" height="92.25" as="geometry" />
        </mxCell>
        <mxCell id="EzxEwULjFDBiXr7_w85N-87" value="HandleZone" style="html=1;overflow=block;blockSpacing=1;whiteSpace=wrap;swimlane;childLayout=stackLayout;horizontal=1;horizontalStack=0;resizeParent=1;resizeParentMax=0;resizeLast=0;collapsible=0;fontStyle=0;marginBottom=0;swimlaneFillColor=#ffffff;startSize=25;whiteSpace=wrap;fontSize=16.7;fontColor=#333333;whiteSpace=wrap;align=center;spacing=0;strokeColor=#5e5e5e;strokeOpacity=100;rounded=1;absoluteArcSize=1;arcSize=9;strokeWidth=2.3;" vertex="1" parent="1">
          <mxGeometry x="45" y="-1215" width="345" height="197.5" as="geometry" />
        </mxCell>
        <mxCell id="EzxEwULjFDBiXr7_w85N-88" value="zone:Zone&#xa;+ZoneInfo:ArrayList&amp;lt;String&amp;gt;" style="part=1;html=1;whiteSpace=wrap;resizeHeight=0;strokeColor=none;fillColor=none;align=left;verticalAlign=middle;spacingLeft=4;spacingRight=4;overflow=hidden;rotatable=0;points=[[0,0.5],[1,0.5]];portConstraint=eastwest;swimlaneFillColor=#ffffff;strokeOpacity=100;whiteSpace=wrap;fontSize=16.7;fontColor=#333333;" vertex="1" parent="EzxEwULjFDBiXr7_w85N-87">
          <mxGeometry y="25" width="345" height="74" as="geometry" />
        </mxCell>
        <mxCell id="EzxEwULjFDBiXr7_w85N-89" value="" style="line;strokeWidth=1;fillColor=none;align=left;verticalAlign=middle;spacingTop=-1;spacingLeft=3;spacingRight=3;rotatable=0;labelPosition=right;points=[];portConstraint=eastwest;" vertex="1" parent="EzxEwULjFDBiXr7_w85N-87">
          <mxGeometry y="99" width="345" height="8" as="geometry" />
        </mxCell>
        <mxCell id="EzxEwULjFDBiXr7_w85N-90" value="+deliverInfo(ZoneType zt):ArrayList&amp;lt;String&amp;gt;" style="part=1;html=1;whiteSpace=wrap;resizeHeight=0;strokeColor=none;fillColor=none;align=left;verticalAlign=middle;spacingLeft=4;spacingRight=4;overflow=hidden;rotatable=0;points=[[0,0.5],[1,0.5]];portConstraint=eastwest;swimlaneFillColor=#ffffff;strokeOpacity=100;whiteSpace=wrap;fontSize=16.7;fontColor=#333333;" vertex="1" parent="EzxEwULjFDBiXr7_w85N-87">
          <mxGeometry y="107" width="345" height="90.5" as="geometry" />
        </mxCell>
        <mxCell id="EzxEwULjFDBiXr7_w85N-91" value="ZoneType" style="html=1;overflow=block;blockSpacing=1;whiteSpace=wrap;swimlane;childLayout=stackLayout;horizontal=1;horizontalStack=0;resizeParent=1;resizeParentMax=0;resizeLast=0;collapsible=0;fontStyle=0;marginBottom=0;swimlaneFillColor=#ffffff;startSize=25;whiteSpace=wrap;fontSize=16.7;fontColor=#333333;whiteSpace=wrap;align=center;spacing=0;strokeColor=#5e5e5e;strokeOpacity=100;rounded=1;absoluteArcSize=1;arcSize=9;strokeWidth=2.3;" vertex="1" parent="1">
          <mxGeometry x="83" y="-1430" width="270" height="153" as="geometry" />
        </mxCell>
        <mxCell id="EzxEwULjFDBiXr7_w85N-92" value="&lt;div style=&quot;display: flex; justify-content: center; text-align: center; align-items: baseline; font-size: 0; line-height: 1.25;margin-top: -2px;&quot;&gt;&lt;span&gt;&lt;span style=&quot;font-size:16.7px;color:#333333;text-decoration: underline;&quot;&gt;RED&lt;/span&gt;&lt;span style=&quot;font-size:16.7px;color:#333333;&quot;&gt;:enum&#xa;&lt;/span&gt;&lt;span style=&quot;font-size:16.7px;color:#333333;text-decoration: underline;&quot;&gt;GREEN&lt;/span&gt;&lt;span style=&quot;font-size:16.7px;color:#333333;&quot;&gt;:enum&#xa;&lt;/span&gt;&lt;span style=&quot;font-size:16.7px;color:#333333;text-decoration: underline;&quot;&gt;YELLOW&lt;/span&gt;&lt;span style=&quot;font-size:16.7px;color:#333333;&quot;&gt;:enum&lt;/span&gt;&lt;/span&gt;&lt;/div&gt;" style="part=1;html=1;whiteSpace=wrap;resizeHeight=0;strokeColor=none;fillColor=none;align=left;verticalAlign=middle;spacingLeft=4;spacingRight=4;overflow=hidden;rotatable=0;points=[[0,0.5],[1,0.5]];portConstraint=eastwest;swimlaneFillColor=#ffffff;strokeOpacity=100;whiteSpace=wrap;fontSize=16.7;fontColor=#333333;fontStyle=4;" vertex="1" parent="EzxEwULjFDBiXr7_w85N-91">
          <mxGeometry y="25" width="270" height="85" as="geometry" />
        </mxCell>
        <mxCell id="EzxEwULjFDBiXr7_w85N-93" value="" style="line;strokeWidth=1;fillColor=none;align=left;verticalAlign=middle;spacingTop=-1;spacingLeft=3;spacingRight=3;rotatable=0;labelPosition=right;points=[];portConstraint=eastwest;" vertex="1" parent="EzxEwULjFDBiXr7_w85N-91">
          <mxGeometry y="110" width="270" height="8" as="geometry" />
        </mxCell>
        <mxCell id="EzxEwULjFDBiXr7_w85N-94" value="" style="part=1;html=1;whiteSpace=wrap;resizeHeight=0;strokeColor=none;fillColor=none;align=left;verticalAlign=middle;spacingLeft=4;spacingRight=4;overflow=hidden;rotatable=0;points=[[0,0.5],[1,0.5]];portConstraint=eastwest;swimlaneFillColor=#ffffff;strokeOpacity=100;whiteSpace=wrap;overflow=block;blockSpacing=1;html=1;fontSize=13;" vertex="1" parent="EzxEwULjFDBiXr7_w85N-91">
          <mxGeometry y="118" width="270" height="35" as="geometry" />
        </mxCell>
        <mxCell id="EzxEwULjFDBiXr7_w85N-95" value="RetrieveZone" style="html=1;overflow=block;blockSpacing=1;whiteSpace=wrap;swimlane;childLayout=stackLayout;horizontal=1;horizontalStack=0;resizeParent=1;resizeParentMax=0;resizeLast=0;collapsible=0;fontStyle=0;marginBottom=0;swimlaneFillColor=#ffffff;startSize=25;whiteSpace=wrap;fontSize=16.7;fontColor=#333333;whiteSpace=wrap;align=center;spacing=0;strokeColor=#5e5e5e;strokeOpacity=100;rounded=1;absoluteArcSize=1;arcSize=9;strokeWidth=2.3;" vertex="1" parent="1">
          <mxGeometry x="495" y="-1462" width="300" height="187.25" as="geometry" />
        </mxCell>
        <mxCell id="EzxEwULjFDBiXr7_w85N-96" value="" style="part=1;html=1;whiteSpace=wrap;resizeHeight=0;strokeColor=none;fillColor=none;align=left;verticalAlign=middle;spacingLeft=4;spacingRight=4;overflow=hidden;rotatable=0;points=[[0,0.5],[1,0.5]];portConstraint=eastwest;swimlaneFillColor=#ffffff;strokeOpacity=100;whiteSpace=wrap;fontSize=13;" vertex="1" parent="EzxEwULjFDBiXr7_w85N-95">
          <mxGeometry y="25" width="300" height="72" as="geometry" />
        </mxCell>
        <mxCell id="EzxEwULjFDBiXr7_w85N-97" value="" style="line;strokeWidth=1;fillColor=none;align=left;verticalAlign=middle;spacingTop=-1;spacingLeft=3;spacingRight=3;rotatable=0;labelPosition=right;points=[];portConstraint=eastwest;" vertex="1" parent="EzxEwULjFDBiXr7_w85N-95">
          <mxGeometry y="97" width="300" height="8" as="geometry" />
        </mxCell>
        <mxCell id="EzxEwULjFDBiXr7_w85N-98" value="+redZoneInfo():ArrayList&amp;lt;String&amp;gt;&#xa;+greenZoneInfo():ArrayList&amp;lt;String&amp;gt;&#xa;+yellowZoneInfo():ArrayList&amp;lt;String&amp;gt;" style="part=1;html=1;whiteSpace=wrap;resizeHeight=0;strokeColor=none;fillColor=none;align=left;verticalAlign=middle;spacingLeft=4;spacingRight=4;overflow=hidden;rotatable=0;points=[[0,0.5],[1,0.5]];portConstraint=eastwest;swimlaneFillColor=#ffffff;strokeOpacity=100;whiteSpace=wrap;fontSize=16.7;fontColor=#333333;" vertex="1" parent="EzxEwULjFDBiXr7_w85N-95">
          <mxGeometry y="105" width="300" height="82.25" as="geometry" />
        </mxCell>
        <mxCell id="EzxEwULjFDBiXr7_w85N-99" value="GreenZone" style="html=1;overflow=block;blockSpacing=1;whiteSpace=wrap;swimlane;childLayout=stackLayout;horizontal=1;horizontalStack=0;resizeParent=1;resizeParentMax=0;resizeLast=0;collapsible=0;fontStyle=0;marginBottom=0;swimlaneFillColor=#ffffff;startSize=25;whiteSpace=wrap;fontSize=16.7;fontColor=#333333;whiteSpace=wrap;align=center;spacing=0;strokeColor=#5e5e5e;strokeOpacity=100;rounded=1;absoluteArcSize=1;arcSize=9;strokeWidth=2.3;" vertex="1" parent="1">
          <mxGeometry x="-382.5" y="-1684.25" width="315" height="187.25" as="geometry" />
        </mxCell>
        <mxCell id="EzxEwULjFDBiXr7_w85N-100" value="" style="part=1;html=1;whiteSpace=wrap;resizeHeight=0;strokeColor=none;fillColor=none;align=left;verticalAlign=middle;spacingLeft=4;spacingRight=4;overflow=hidden;rotatable=0;points=[[0,0.5],[1,0.5]];portConstraint=eastwest;swimlaneFillColor=#ffffff;strokeOpacity=100;whiteSpace=wrap;fontSize=13;" vertex="1" parent="EzxEwULjFDBiXr7_w85N-99">
          <mxGeometry y="25" width="315" height="72" as="geometry" />
        </mxCell>
        <mxCell id="EzxEwULjFDBiXr7_w85N-101" value="" style="line;strokeWidth=1;fillColor=none;align=left;verticalAlign=middle;spacingTop=-1;spacingLeft=3;spacingRight=3;rotatable=0;labelPosition=right;points=[];portConstraint=eastwest;" vertex="1" parent="EzxEwULjFDBiXr7_w85N-99">
          <mxGeometry y="97" width="315" height="8" as="geometry" />
        </mxCell>
        <mxCell id="EzxEwULjFDBiXr7_w85N-102" value="+productInfo(ArrayList&amp;lt;String&amp;gt; li):void&#xa;+deliverInfo():ArrayList&amp;lt;String&amp;gt; " style="part=1;html=1;whiteSpace=wrap;resizeHeight=0;strokeColor=none;fillColor=none;align=left;verticalAlign=middle;spacingLeft=4;spacingRight=4;overflow=hidden;rotatable=0;points=[[0,0.5],[1,0.5]];portConstraint=eastwest;swimlaneFillColor=#ffffff;strokeOpacity=100;whiteSpace=wrap;fontSize=16.7;fontColor=#333333;" vertex="1" parent="EzxEwULjFDBiXr7_w85N-99">
          <mxGeometry y="105" width="315" height="82.25" as="geometry" />
        </mxCell>
        <mxCell id="EzxEwULjFDBiXr7_w85N-103" value="RedZone" style="html=1;overflow=block;blockSpacing=1;whiteSpace=wrap;swimlane;childLayout=stackLayout;horizontal=1;horizontalStack=0;resizeParent=1;resizeParentMax=0;resizeLast=0;collapsible=0;fontStyle=0;marginBottom=0;swimlaneFillColor=#ffffff;startSize=25;whiteSpace=wrap;fontSize=16.7;fontColor=#333333;whiteSpace=wrap;align=center;spacing=0;strokeColor=#5e5e5e;strokeOpacity=100;rounded=1;absoluteArcSize=1;arcSize=9;strokeWidth=2.3;" vertex="1" parent="1">
          <mxGeometry x="-700" y="-1674.75" width="300" height="168.25" as="geometry" />
        </mxCell>
        <mxCell id="EzxEwULjFDBiXr7_w85N-104" value="" style="part=1;html=1;whiteSpace=wrap;resizeHeight=0;strokeColor=none;fillColor=none;align=left;verticalAlign=middle;spacingLeft=4;spacingRight=4;overflow=hidden;rotatable=0;points=[[0,0.5],[1,0.5]];portConstraint=eastwest;swimlaneFillColor=#ffffff;strokeOpacity=100;whiteSpace=wrap;fontSize=13;" vertex="1" parent="EzxEwULjFDBiXr7_w85N-103">
          <mxGeometry y="25" width="300" height="62" as="geometry" />
        </mxCell>
        <mxCell id="EzxEwULjFDBiXr7_w85N-105" value="" style="line;strokeWidth=1;fillColor=none;align=left;verticalAlign=middle;spacingTop=-1;spacingLeft=3;spacingRight=3;rotatable=0;labelPosition=right;points=[];portConstraint=eastwest;" vertex="1" parent="EzxEwULjFDBiXr7_w85N-103">
          <mxGeometry y="87" width="300" height="8" as="geometry" />
        </mxCell>
        <mxCell id="EzxEwULjFDBiXr7_w85N-106" value="+productInfo(ArrayList&amp;lt;String&amp;gt; li):void&#xa;+deliverInfo():ArrayList&amp;lt;String&amp;gt; " style="part=1;html=1;whiteSpace=wrap;resizeHeight=0;strokeColor=none;fillColor=none;align=left;verticalAlign=middle;spacingLeft=4;spacingRight=4;overflow=hidden;rotatable=0;points=[[0,0.5],[1,0.5]];portConstraint=eastwest;swimlaneFillColor=#ffffff;strokeOpacity=100;whiteSpace=wrap;fontSize=16.7;fontColor=#333333;" vertex="1" parent="EzxEwULjFDBiXr7_w85N-103">
          <mxGeometry y="95" width="300" height="73.25" as="geometry" />
        </mxCell>
        <mxCell id="EzxEwULjFDBiXr7_w85N-107" value="YellowZone" style="html=1;overflow=block;blockSpacing=1;whiteSpace=wrap;swimlane;childLayout=stackLayout;horizontal=1;horizontalStack=0;resizeParent=1;resizeParentMax=0;resizeLast=0;collapsible=0;fontStyle=0;marginBottom=0;swimlaneFillColor=#ffffff;startSize=25;whiteSpace=wrap;fontSize=16.7;fontColor=#333333;whiteSpace=wrap;align=center;spacing=0;strokeColor=#5e5e5e;strokeOpacity=100;rounded=1;absoluteArcSize=1;arcSize=9;strokeWidth=2.3;" vertex="1" parent="1">
          <mxGeometry x="-50" y="-1674.75" width="338" height="143.5" as="geometry" />
        </mxCell>
        <mxCell id="EzxEwULjFDBiXr7_w85N-108" value="" style="part=1;html=1;whiteSpace=wrap;resizeHeight=0;strokeColor=none;fillColor=none;align=left;verticalAlign=middle;spacingLeft=4;spacingRight=4;overflow=hidden;rotatable=0;points=[[0,0.5],[1,0.5]];portConstraint=eastwest;swimlaneFillColor=#ffffff;strokeOpacity=100;whiteSpace=wrap;fontSize=13;" vertex="1" parent="EzxEwULjFDBiXr7_w85N-107">
          <mxGeometry y="25" width="338" height="56" as="geometry" />
        </mxCell>
        <mxCell id="EzxEwULjFDBiXr7_w85N-109" value="" style="line;strokeWidth=1;fillColor=none;align=left;verticalAlign=middle;spacingTop=-1;spacingLeft=3;spacingRight=3;rotatable=0;labelPosition=right;points=[];portConstraint=eastwest;" vertex="1" parent="EzxEwULjFDBiXr7_w85N-107">
          <mxGeometry y="81" width="338" height="8" as="geometry" />
        </mxCell>
        <mxCell id="EzxEwULjFDBiXr7_w85N-110" value="+productInfo(ArrayList&amp;lt;String&amp;gt; li):void&#xa;+deliverInfo():ArrayList&amp;lt;String&amp;gt; " style="part=1;html=1;whiteSpace=wrap;resizeHeight=0;strokeColor=none;fillColor=none;align=left;verticalAlign=middle;spacingLeft=4;spacingRight=4;overflow=hidden;rotatable=0;points=[[0,0.5],[1,0.5]];portConstraint=eastwest;swimlaneFillColor=#ffffff;strokeOpacity=100;whiteSpace=wrap;fontSize=16.7;fontColor=#333333;" vertex="1" parent="EzxEwULjFDBiXr7_w85N-107">
          <mxGeometry y="89" width="338" height="54.5" as="geometry" />
        </mxCell>
        <mxCell id="EzxEwULjFDBiXr7_w85N-111" value="&lt;div style=&quot;display: flex; justify-content: center; text-align: center; align-items: baseline; font-size: 0; line-height: 1.25;margin-top: -2px;&quot;&gt;&lt;span&gt;&lt;span style=&quot;font-size:13px;font-weight: bold;&quot;&gt;&lt;span style=&quot;font-size:13px;font-weight: bold;&quot;&gt;&amp;lt;&amp;lt;interface&amp;gt;&amp;gt;&#xa;&lt;/span&gt;&lt;span style=&quot;font-size:13px;font-weight: bold;font-style: italic;&quot;&gt;Zone&lt;/span&gt;&lt;/span&gt;&lt;/span&gt;&lt;/div&gt;" style="html=1;overflow=block;blockSpacing=1;whiteSpace=wrap;swimlane;childLayout=stackLayout;horizontal=1;horizontalStack=0;resizeParent=1;resizeParentMax=0;resizeLast=0;collapsible=0;fontStyle=0;marginBottom=0;swimlaneFillColor=#ffffff;startSize=50;whiteSpace=wrap;overflow=block;blockSpacing=1;html=1;fontSize=13;whiteSpace=wrap;fontSize=13;align=left;spacing=0;strokeColor=#5e5e5e;strokeOpacity=100;rounded=1;absoluteArcSize=1;arcSize=9;strokeWidth=2.3;" vertex="1" parent="1">
          <mxGeometry x="-370" y="-1420" width="270" height="150" as="geometry" />
        </mxCell>
        <mxCell id="EzxEwULjFDBiXr7_w85N-112" value="+productInfo(ArrayList&amp;lt;String&amp;gt; li):void&#xa;+deliverInfo():ArrayList&amp;lt;String&amp;gt; " style="part=1;html=1;whiteSpace=wrap;resizeHeight=0;strokeColor=none;fillColor=none;align=left;verticalAlign=middle;spacingLeft=4;spacingRight=4;overflow=hidden;rotatable=0;points=[[0,0.5],[1,0.5]];portConstraint=eastwest;swimlaneFillColor=#ffffff;strokeOpacity=100;whiteSpace=wrap;overflow=block;blockSpacing=1;html=1;fontSize=13;" vertex="1" parent="EzxEwULjFDBiXr7_w85N-111">
          <mxGeometry y="50" width="270" height="100" as="geometry" />
        </mxCell>
        <mxCell id="EzxEwULjFDBiXr7_w85N-113" value="SubmitPL" style="html=1;overflow=block;blockSpacing=1;whiteSpace=wrap;swimlane;childLayout=stackLayout;horizontal=1;horizontalStack=0;resizeParent=1;resizeParentMax=0;resizeLast=0;collapsible=0;fontStyle=0;marginBottom=0;swimlaneFillColor=#ffffff;startSize=25;whiteSpace=wrap;fontSize=16.7;fontColor=#333333;whiteSpace=wrap;align=center;spacing=0;strokeColor=#5e5e5e;strokeOpacity=100;rounded=1;absoluteArcSize=1;arcSize=9;strokeWidth=2.3;" vertex="1" parent="1">
          <mxGeometry x="-7.5" y="-167.25" width="270" height="207.25" as="geometry" />
        </mxCell>
        <mxCell id="EzxEwULjFDBiXr7_w85N-114" value="-btn_agri:Button&#xa;-btn_nbr:Button&#xa;-btn_tcb:Button&#xa;-btn_cci:Button" style="part=1;html=1;whiteSpace=wrap;resizeHeight=0;strokeColor=none;fillColor=none;align=left;verticalAlign=middle;spacingLeft=4;spacingRight=4;overflow=hidden;rotatable=0;points=[[0,0.5],[1,0.5]];portConstraint=eastwest;swimlaneFillColor=#ffffff;strokeOpacity=100;whiteSpace=wrap;fontSize=16.7;fontColor=#333333;" vertex="1" parent="EzxEwULjFDBiXr7_w85N-113">
          <mxGeometry y="25" width="270" height="82" as="geometry" />
        </mxCell>
        <mxCell id="EzxEwULjFDBiXr7_w85N-115" value="" style="line;strokeWidth=1;fillColor=none;align=left;verticalAlign=middle;spacingTop=-1;spacingLeft=3;spacingRight=3;rotatable=0;labelPosition=right;points=[];portConstraint=eastwest;" vertex="1" parent="EzxEwULjFDBiXr7_w85N-113">
          <mxGeometry y="107" width="270" height="8" as="geometry" />
        </mxCell>
        <mxCell id="EzxEwULjFDBiXr7_w85N-116" value="+contentView():void" style="part=1;html=1;whiteSpace=wrap;resizeHeight=0;strokeColor=none;fillColor=none;align=left;verticalAlign=middle;spacingLeft=4;spacingRight=4;overflow=hidden;rotatable=0;points=[[0,0.5],[1,0.5]];portConstraint=eastwest;swimlaneFillColor=#ffffff;strokeOpacity=100;whiteSpace=wrap;fontSize=16.7;fontColor=#333333;" vertex="1" parent="EzxEwULjFDBiXr7_w85N-113">
          <mxGeometry y="115" width="270" height="92.25" as="geometry" />
        </mxCell>
        <mxCell id="EzxEwULjFDBiXr7_w85N-117" value="&lt;div style=&quot;display: flex; justify-content: center; text-align: center; align-items: baseline; font-size: 0; line-height: 1.25;margin-top: -2px;&quot;&gt;&lt;span&gt;&lt;span style=&quot;font-size:13px;font-weight: bold;&quot;&gt;&lt;span style=&quot;font-size:13px;font-weight: bold;&quot;&gt;&amp;lt;&amp;lt;interface&amp;gt;&amp;gt;&#xa;&lt;/span&gt;&lt;span style=&quot;font-size:13px;font-weight: bold;font-style: italic;&quot;&gt;ShowData&lt;/span&gt;&lt;/span&gt;&lt;/span&gt;&lt;/div&gt;" style="html=1;overflow=block;blockSpacing=1;whiteSpace=wrap;swimlane;childLayout=stackLayout;horizontal=1;horizontalStack=0;resizeParent=1;resizeParentMax=0;resizeLast=0;collapsible=0;fontStyle=0;marginBottom=0;swimlaneFillColor=#ffffff;startSize=40;whiteSpace=wrap;overflow=block;blockSpacing=1;html=1;fontSize=13;whiteSpace=wrap;fontSize=13;align=left;spacing=0;strokeColor=#5e5e5e;strokeOpacity=100;rounded=1;absoluteArcSize=1;arcSize=9;strokeWidth=2.3;" vertex="1" parent="1">
          <mxGeometry x="-456" y="40" width="270" height="148.5" as="geometry" />
        </mxCell>
        <mxCell id="EzxEwULjFDBiXr7_w85N-118" value="+show():void" style="part=1;html=1;whiteSpace=wrap;resizeHeight=0;strokeColor=none;fillColor=none;align=left;verticalAlign=middle;spacingLeft=4;spacingRight=4;overflow=hidden;rotatable=0;points=[[0,0.5],[1,0.5]];portConstraint=eastwest;swimlaneFillColor=#ffffff;strokeOpacity=100;whiteSpace=wrap;overflow=block;blockSpacing=1;html=1;fontSize=13;" vertex="1" parent="EzxEwULjFDBiXr7_w85N-117">
          <mxGeometry y="40" width="270" height="108.5" as="geometry" />
        </mxCell>
        <mxCell id="EzxEwULjFDBiXr7_w85N-119" value="ModifyPL" style="html=1;overflow=block;blockSpacing=1;whiteSpace=wrap;swimlane;childLayout=stackLayout;horizontal=1;horizontalStack=0;resizeParent=1;resizeParentMax=0;resizeLast=0;collapsible=0;fontStyle=0;marginBottom=0;swimlaneFillColor=#ffffff;startSize=25;whiteSpace=wrap;fontSize=16.7;fontColor=#333333;whiteSpace=wrap;align=center;spacing=0;strokeColor=#5e5e5e;strokeOpacity=100;rounded=1;absoluteArcSize=1;arcSize=9;strokeWidth=2.3;" vertex="1" parent="1">
          <mxGeometry x="353" y="-180" width="270" height="207.25" as="geometry" />
        </mxCell>
        <mxCell id="EzxEwULjFDBiXr7_w85N-120" value="-btn_agri:Button&#xa;-btn_nbr:Button&#xa;-btn_tcb:Button&#xa;-btn_cci:Button" style="part=1;html=1;whiteSpace=wrap;resizeHeight=0;strokeColor=none;fillColor=none;align=left;verticalAlign=middle;spacingLeft=4;spacingRight=4;overflow=hidden;rotatable=0;points=[[0,0.5],[1,0.5]];portConstraint=eastwest;swimlaneFillColor=#ffffff;strokeOpacity=100;whiteSpace=wrap;fontSize=16.7;fontColor=#333333;" vertex="1" parent="EzxEwULjFDBiXr7_w85N-119">
          <mxGeometry y="25" width="270" height="82" as="geometry" />
        </mxCell>
        <mxCell id="EzxEwULjFDBiXr7_w85N-121" value="" style="line;strokeWidth=1;fillColor=none;align=left;verticalAlign=middle;spacingTop=-1;spacingLeft=3;spacingRight=3;rotatable=0;labelPosition=right;points=[];portConstraint=eastwest;" vertex="1" parent="EzxEwULjFDBiXr7_w85N-119">
          <mxGeometry y="107" width="270" height="8" as="geometry" />
        </mxCell>
        <mxCell id="EzxEwULjFDBiXr7_w85N-122" value="+contentView():void" style="part=1;html=1;whiteSpace=wrap;resizeHeight=0;strokeColor=none;fillColor=none;align=left;verticalAlign=middle;spacingLeft=4;spacingRight=4;overflow=hidden;rotatable=0;points=[[0,0.5],[1,0.5]];portConstraint=eastwest;swimlaneFillColor=#ffffff;strokeOpacity=100;whiteSpace=wrap;fontSize=16.7;fontColor=#333333;" vertex="1" parent="EzxEwULjFDBiXr7_w85N-119">
          <mxGeometry y="115" width="270" height="92.25" as="geometry" />
        </mxCell>
        <mxCell id="EzxEwULjFDBiXr7_w85N-123" value="&lt;div style=&quot;display: flex; justify-content: center; text-align: center; align-items: baseline; font-size: 0; line-height: 1.25;margin-top: -2px;&quot;&gt;&lt;span&gt;&lt;span style=&quot;font-size:13px;font-weight: bold;&quot;&gt;&lt;span style=&quot;font-size:13px;font-weight: bold;&quot;&gt;&amp;lt;&amp;lt;interface&amp;gt;&amp;gt;&#xa;&lt;/span&gt;&lt;span style=&quot;font-size:13px;font-weight: bold;font-style: italic;&quot;&gt;insertData&lt;/span&gt;&lt;/span&gt;&lt;/span&gt;&lt;/div&gt;" style="html=1;overflow=block;blockSpacing=1;whiteSpace=wrap;swimlane;childLayout=stackLayout;horizontal=1;horizontalStack=0;resizeParent=1;resizeParentMax=0;resizeLast=0;collapsible=0;fontStyle=0;marginBottom=0;swimlaneFillColor=#ffffff;startSize=40;whiteSpace=wrap;overflow=block;blockSpacing=1;html=1;fontSize=13;whiteSpace=wrap;fontSize=13;align=left;spacing=0;strokeColor=#5e5e5e;strokeOpacity=100;rounded=1;absoluteArcSize=1;arcSize=9;strokeWidth=2.3;" vertex="1" parent="1">
          <mxGeometry x="930" width="270" height="144.5" as="geometry" />
        </mxCell>
        <mxCell id="EzxEwULjFDBiXr7_w85N-124" value="&lt;div style=&quot;display: flex; justify-content: center; text-align: center; align-items: baseline; font-size: 0; line-height: 1.25;margin-top: -2px;&quot;&gt;&lt;span&gt;&lt;span style=&quot;font-size:16.7px;color:#333333;&quot;&gt;&lt;span style=&quot;font-size:16.7px;color:#333333;&quot;&gt;+&lt;/span&gt;&lt;span style=&quot;font-size:16.7px;color:#333333;font-style: italic;&quot;&gt;addData():void&#xa;+updateData():void&lt;/span&gt;&lt;/span&gt;&lt;/span&gt;&lt;/div&gt;" style="part=1;html=1;whiteSpace=wrap;resizeHeight=0;strokeColor=none;fillColor=none;align=left;verticalAlign=middle;spacingLeft=4;spacingRight=4;overflow=hidden;rotatable=0;points=[[0,0.5],[1,0.5]];portConstraint=eastwest;swimlaneFillColor=#ffffff;strokeOpacity=100;whiteSpace=wrap;overflow=block;blockSpacing=1;html=1;fontSize=13;" vertex="1" parent="EzxEwULjFDBiXr7_w85N-123">
          <mxGeometry y="40" width="270" height="104.5" as="geometry" />
        </mxCell>
        <mxCell id="EzxEwULjFDBiXr7_w85N-126" value="Builder" style="html=1;overflow=block;blockSpacing=1;whiteSpace=wrap;swimlane;childLayout=stackLayout;horizontal=1;horizontalStack=0;resizeParent=1;resizeParentMax=0;resizeLast=0;collapsible=0;fontStyle=0;marginBottom=0;swimlaneFillColor=#ffffff;startSize=25;whiteSpace=wrap;fontSize=16.7;fontColor=#333333;whiteSpace=wrap;align=center;spacing=0;strokeColor=#5e5e5e;strokeOpacity=100;rounded=1;absoluteArcSize=1;arcSize=9;strokeWidth=2.3;" vertex="1" parent="1">
          <mxGeometry x="855" y="-1220" width="405" height="246.25" as="geometry" />
        </mxCell>
        <mxCell id="EzxEwULjFDBiXr7_w85N-127" value="-productName:String&#xa;-productCode:String&#xa;-dept:String" style="part=1;html=1;whiteSpace=wrap;resizeHeight=0;strokeColor=none;fillColor=none;align=left;verticalAlign=middle;spacingLeft=4;spacingRight=4;overflow=hidden;rotatable=0;points=[[0,0.5],[1,0.5]];portConstraint=eastwest;swimlaneFillColor=#ffffff;strokeOpacity=100;whiteSpace=wrap;fontSize=16.7;fontColor=#333333;" vertex="1" parent="EzxEwULjFDBiXr7_w85N-126">
          <mxGeometry y="25" width="405" height="102" as="geometry" />
        </mxCell>
        <mxCell id="EzxEwULjFDBiXr7_w85N-128" value="" style="line;strokeWidth=1;fillColor=none;align=left;verticalAlign=middle;spacingTop=-1;spacingLeft=3;spacingRight=3;rotatable=0;labelPosition=right;points=[];portConstraint=eastwest;" vertex="1" parent="EzxEwULjFDBiXr7_w85N-126">
          <mxGeometry y="127" width="405" height="8" as="geometry" />
        </mxCell>
        <mxCell id="EzxEwULjFDBiXr7_w85N-129" value="+Builder(productName:String,productCode:String,&#xa;Dept:String)&#xa;+setDept(String dept):Builder&#xa;+Builder():DistributeAL" style="part=1;html=1;whiteSpace=wrap;resizeHeight=0;strokeColor=none;fillColor=none;align=left;verticalAlign=middle;spacingLeft=4;spacingRight=4;overflow=hidden;rotatable=0;points=[[0,0.5],[1,0.5]];portConstraint=eastwest;swimlaneFillColor=#ffffff;strokeOpacity=100;whiteSpace=wrap;fontSize=16.7;fontColor=#333333;" vertex="1" parent="EzxEwULjFDBiXr7_w85N-126">
          <mxGeometry y="135" width="405" height="111.25" as="geometry" />
        </mxCell>
        <UserObject label="" lucidchartObjectId="IPNv42uPBxQa" id="EzxEwULjFDBiXr7_w85N-130">
          <mxCell style="html=1;jettySize=18;whiteSpace=wrap;fontSize=13;strokeColor=#5E5E5E;strokeWidth=1.5;rounded=1;arcSize=12;edgeStyle=orthogonalEdgeStyle;startArrow=block;startFill=1;;endArrow=none;;exitX=0.5;exitY=1.008;exitPerimeter=0;entryX=0.5;entryY=-0.007;entryPerimeter=0;" edge="1" parent="1" source="EzxEwULjFDBiXr7_w85N-91" target="EzxEwULjFDBiXr7_w85N-87">
            <mxGeometry width="100" height="100" relative="1" as="geometry">
              <Array as="points" />
            </mxGeometry>
          </mxCell>
        </UserObject>
        <mxCell id="EzxEwULjFDBiXr7_w85N-131" value="uses" style="text;html=1;resizable=0;labelBackgroundColor=#ffffff;align=center;verticalAlign=middle;fontColor=#333333;;fontSize=13.3;" vertex="1" parent="EzxEwULjFDBiXr7_w85N-130">
          <mxGeometry x="0.5864342264598235" relative="1" as="geometry">
            <mxPoint y="-9" as="offset" />
          </mxGeometry>
        </mxCell>
        <UserObject label="" lucidchartObjectId="QPNvVGD~2zOC" id="EzxEwULjFDBiXr7_w85N-132">
          <mxCell style="html=1;jettySize=18;whiteSpace=wrap;fontSize=13;strokeColor=#5E5E5E;strokeWidth=1.5;rounded=1;arcSize=12;edgeStyle=orthogonalEdgeStyle;startArrow=block;startFill=1;;endArrow=none;;exitX=0.5;exitY=1.007;exitPerimeter=0;" edge="1" parent="1" source="EzxEwULjFDBiXr7_w85N-95">
            <mxGeometry width="100" height="100" relative="1" as="geometry">
              <Array as="points">
                <mxPoint x="645" y="-1250" />
                <mxPoint x="218" y="-1250" />
              </Array>
              <mxPoint x="218" y="-1244" as="targetPoint" />
            </mxGeometry>
          </mxCell>
        </UserObject>
        <UserObject label="" lucidchartObjectId="fQNvMUOi9PLk" id="EzxEwULjFDBiXr7_w85N-133">
          <mxCell style="html=1;jettySize=18;whiteSpace=wrap;fontSize=13;strokeColor=#5E5E5E;strokeWidth=1.5;rounded=1;arcSize=12;edgeStyle=orthogonalEdgeStyle;startArrow=block;startFill=1;;endArrow=none;;exitX=0.5;exitY=1.006;exitPerimeter=0;" edge="1" parent="1">
            <mxGeometry width="100" height="100" relative="1" as="geometry">
              <Array as="points">
                <mxPoint x="-235" y="-1249" />
                <mxPoint x="218" y="-1249" />
              </Array>
              <mxPoint x="218" y="-1243" as="targetPoint" />
              <mxPoint x="-235" y="-1268.1" as="sourcePoint" />
            </mxGeometry>
          </mxCell>
        </UserObject>
        <UserObject label="" lucidchartObjectId="UTNvCFdGKtO0" id="EzxEwULjFDBiXr7_w85N-134">
          <mxCell style="html=1;jettySize=18;whiteSpace=wrap;fontSize=13;strokeColor=#5E5E5E;strokeWidth=1.5;rounded=1;arcSize=12;edgeStyle=orthogonalEdgeStyle;startArrow=classic;;endArrow=none;endFill=0;;exitX=0.5;exitY=-0.006;exitPerimeter=0;entryX=0.476;entryY=1.008;entryPerimeter=0;startFill=1;dashed=1;" edge="1" parent="1" source="EzxEwULjFDBiXr7_w85N-111" target="EzxEwULjFDBiXr7_w85N-99">
            <mxGeometry width="100" height="100" relative="1" as="geometry">
              <Array as="points" />
            </mxGeometry>
          </mxCell>
        </UserObject>
        <UserObject label="" lucidchartObjectId="cUNv~HOB6wMC" id="EzxEwULjFDBiXr7_w85N-135">
          <mxCell style="html=1;jettySize=18;whiteSpace=wrap;fontSize=13;strokeColor=#5E5E5E;dashed=1;fixDash=1;dashPattern=8 8;strokeWidth=1.5;rounded=1;arcSize=12;edgeStyle=orthogonalEdgeStyle;startArrow=none;startFill=0;;endArrow=none;;exitX=0.5;exitY=1.008;exitPerimeter=0;" edge="1" parent="1" source="EzxEwULjFDBiXr7_w85N-107">
            <mxGeometry width="100" height="100" relative="1" as="geometry">
              <Array as="points">
                <mxPoint x="119" y="-1454" />
              </Array>
              <mxPoint x="-225" y="-1454" as="targetPoint" />
            </mxGeometry>
          </mxCell>
        </UserObject>
        <UserObject label="" lucidchartObjectId="FUNvMGhxQw5p" id="EzxEwULjFDBiXr7_w85N-136">
          <mxCell style="html=1;jettySize=18;whiteSpace=wrap;fontSize=13;strokeColor=#5E5E5E;dashed=1;fixDash=1;dashPattern=8 8;strokeWidth=1.5;rounded=1;arcSize=12;edgeStyle=orthogonalEdgeStyle;startArrow=none;startFill=0;;endArrow=none;;exitX=0.5;exitY=1.008;exitPerimeter=0;" edge="1" parent="1" source="EzxEwULjFDBiXr7_w85N-103">
            <mxGeometry width="100" height="100" relative="1" as="geometry">
              <Array as="points">
                <mxPoint x="-550" y="-1452" />
              </Array>
              <mxPoint x="-225" y="-1452" as="targetPoint" />
            </mxGeometry>
          </mxCell>
        </UserObject>
        <mxCell id="EzxEwULjFDBiXr7_w85N-137" value="implement" style="text;html=1;resizable=0;labelBackgroundColor=#ffffff;align=center;verticalAlign=middle;fontStyle=1;fontColor=#333333;;fontSize=13.3;" vertex="1" parent="EzxEwULjFDBiXr7_w85N-136">
          <mxGeometry x="0.9965027639585942" relative="1" as="geometry" />
        </mxCell>
        <UserObject label="" lucidchartObjectId="TYNv7UG_S78f" id="EzxEwULjFDBiXr7_w85N-138">
          <mxCell style="html=1;jettySize=18;whiteSpace=wrap;fontSize=13;strokeColor=#5E5E5E;strokeWidth=1.5;rounded=1;arcSize=12;edgeStyle=orthogonalEdgeStyle;startArrow=diamond;startFill=0;startSize=16;;endArrow=block;endFill=1;;exitX=0.5;exitY=-0.009;exitPerimeter=0;entryX=0.481;entryY=1.005;entryPerimeter=0;" edge="1" parent="1" source="EzxEwULjFDBiXr7_w85N-71" target="EzxEwULjFDBiXr7_w85N-126">
            <mxGeometry width="100" height="100" relative="1" as="geometry">
              <Array as="points" />
            </mxGeometry>
          </mxCell>
        </UserObject>
        <mxCell id="EzxEwULjFDBiXr7_w85N-139" value="ask" style="text;html=1;resizable=0;labelBackgroundColor=#ffffff;align=center;verticalAlign=middle;fontStyle=1;fontColor=#333333;;fontSize=13.3;" vertex="1" parent="EzxEwULjFDBiXr7_w85N-138">
          <mxGeometry x="-0.1691443861997025" relative="1" as="geometry" />
        </mxCell>
        <UserObject label="" lucidchartObjectId="lZNvMyG50jND" id="EzxEwULjFDBiXr7_w85N-140">
          <mxCell style="html=1;jettySize=18;whiteSpace=wrap;fontSize=13;strokeColor=#5E5E5E;strokeWidth=1.5;rounded=1;arcSize=12;edgeStyle=orthogonalEdgeStyle;startArrow=none;;endArrow=block;endFill=1;;exitX=1.003;exitY=0.5;exitPerimeter=0;entryX=-0.003;entryY=0.5;entryPerimeter=0;" edge="1" parent="1" source="EzxEwULjFDBiXr7_w85N-126" target="EzxEwULjFDBiXr7_w85N-75">
            <mxGeometry width="100" height="100" relative="1" as="geometry">
              <Array as="points" />
            </mxGeometry>
          </mxCell>
        </UserObject>
        <mxCell id="EzxEwULjFDBiXr7_w85N-141" value="creates" style="text;html=1;resizable=0;labelBackgroundColor=#ffffff;align=center;verticalAlign=middle;fontStyle=1;fontColor=#333333;;fontSize=13.3;" vertex="1" parent="EzxEwULjFDBiXr7_w85N-140">
          <mxGeometry relative="1" as="geometry" />
        </mxCell>
        <UserObject label="" lucidchartObjectId="k0NvGFgzFVxa" id="EzxEwULjFDBiXr7_w85N-142">
          <mxCell style="html=1;jettySize=18;whiteSpace=wrap;fontSize=13;strokeColor=#5E5E5E;dashed=1;fixDash=1;dashPattern=8 8;strokeWidth=1.5;rounded=1;arcSize=12;edgeStyle=orthogonalEdgeStyle;startArrow=block;startFill=1;;endArrow=none;;exitX=0.5;exitY=1.01;exitPerimeter=0;" edge="1" parent="1" source="EzxEwULjFDBiXr7_w85N-123">
            <mxGeometry width="100" height="100" relative="1" as="geometry">
              <Array as="points" />
              <mxPoint x="1065" y="220" as="targetPoint" />
            </mxGeometry>
          </mxCell>
        </UserObject>
        <UserObject label="" lucidchartObjectId="I0NvY-XQyr4V" id="EzxEwULjFDBiXr7_w85N-143">
          <mxCell style="html=1;jettySize=18;whiteSpace=wrap;fontSize=13;strokeColor=#5E5E5E;dashed=1;fixDash=1;dashPattern=8 8;strokeWidth=1.5;rounded=1;arcSize=12;edgeStyle=orthogonalEdgeStyle;startArrow=none;;endArrow=none;;exitX=0.5;exitY=-0.006;exitPerimeter=0;entryX=0.5;entryY=-0.005;entryPerimeter=0;" edge="1" parent="1" source="EzxEwULjFDBiXr7_w85N-55" target="EzxEwULjFDBiXr7_w85N-59">
            <mxGeometry width="100" height="100" relative="1" as="geometry">
              <Array as="points">
                <mxPoint x="570" y="219" />
                <mxPoint x="1515" y="219" />
              </Array>
            </mxGeometry>
          </mxCell>
        </UserObject>
        <UserObject label="" lucidchartObjectId="U0Nvq4Gspudk" id="EzxEwULjFDBiXr7_w85N-144">
          <mxCell style="html=1;jettySize=18;whiteSpace=wrap;fontSize=13;strokeColor=#5E5E5E;dashed=1;fixDash=1;dashPattern=8 8;strokeWidth=1.5;rounded=1;arcSize=12;edgeStyle=orthogonalEdgeStyle;startArrow=none;;endArrow=none;;exitX=0.5;exitY=-0.005;exitPerimeter=0;" edge="1" parent="1" source="EzxEwULjFDBiXr7_w85N-47">
            <mxGeometry width="100" height="100" relative="1" as="geometry">
              <Array as="points" />
              <mxPoint x="870" y="220" as="targetPoint" />
            </mxGeometry>
          </mxCell>
        </UserObject>
        <UserObject label="" lucidchartObjectId="X0NvfSbqWCYR" id="EzxEwULjFDBiXr7_w85N-145">
          <mxCell style="html=1;jettySize=18;whiteSpace=wrap;fontSize=13;strokeColor=#5E5E5E;dashed=1;fixDash=1;dashPattern=8 8;strokeWidth=1.5;rounded=1;arcSize=12;edgeStyle=orthogonalEdgeStyle;startArrow=none;;endArrow=none;;exitX=0.5;exitY=-0.005;exitPerimeter=0;" edge="1" parent="1" source="EzxEwULjFDBiXr7_w85N-31">
            <mxGeometry width="100" height="100" relative="1" as="geometry">
              <Array as="points" />
              <mxPoint x="1185" y="220" as="targetPoint" />
            </mxGeometry>
          </mxCell>
        </UserObject>
        <UserObject label="" lucidchartObjectId="52NvboYq94v3" id="EzxEwULjFDBiXr7_w85N-146">
          <mxCell style="html=1;jettySize=18;whiteSpace=wrap;fontSize=13;strokeColor=#5E5E5E;dashed=1;fixDash=1;dashPattern=8 8;strokeWidth=1.5;rounded=1;arcSize=12;edgeStyle=orthogonalEdgeStyle;startArrow=none;;endArrow=none;;exitX=0.5;exitY=-0.006;exitPerimeter=0;entryX=0.55;entryY=0.005;entryDx=0;entryDy=0;entryPerimeter=0;" edge="1" parent="1" source="EzxEwULjFDBiXr7_w85N-51" target="EzxEwULjFDBiXr7_w85N-43">
            <mxGeometry width="100" height="100" relative="1" as="geometry">
              <Array as="points">
                <mxPoint x="-705" y="240" />
                <mxPoint x="210" y="240" />
                <mxPoint x="210" y="296" />
              </Array>
              <mxPoint x="200" y="290" as="targetPoint" />
            </mxGeometry>
          </mxCell>
        </UserObject>
        <UserObject label="" lucidchartObjectId="c3NvsL8P~QbP" id="EzxEwULjFDBiXr7_w85N-148">
          <mxCell style="html=1;jettySize=18;whiteSpace=wrap;fontSize=13;strokeColor=#5E5E5E;dashed=1;fixDash=1;dashPattern=8 8;strokeWidth=1.5;rounded=1;arcSize=12;edgeStyle=orthogonalEdgeStyle;startArrow=none;;endArrow=none;;exitX=0.5;exitY=-0.006;exitPerimeter=0;" edge="1" parent="1" source="EzxEwULjFDBiXr7_w85N-35">
            <mxGeometry width="100" height="100" relative="1" as="geometry">
              <Array as="points" />
              <mxPoint x="-90" y="230" as="targetPoint" />
            </mxGeometry>
          </mxCell>
        </UserObject>
        <UserObject label="" lucidchartObjectId="v3NvJUxderQ6" id="EzxEwULjFDBiXr7_w85N-149">
          <mxCell style="html=1;jettySize=18;whiteSpace=wrap;fontSize=13;strokeColor=#5E5E5E;dashed=1;fixDash=1;dashPattern=8 8;strokeWidth=1.5;rounded=1;arcSize=12;edgeStyle=orthogonalEdgeStyle;startArrow=block;startFill=1;;endArrow=none;;exitX=0.5;exitY=1.011;exitPerimeter=0;" edge="1" parent="1" source="EzxEwULjFDBiXr7_w85N-117">
            <mxGeometry width="100" height="100" relative="1" as="geometry">
              <Array as="points" />
              <mxPoint x="-321" y="249" as="targetPoint" />
            </mxGeometry>
          </mxCell>
        </UserObject>
        <UserObject label="" lucidchartObjectId="k-NvQlnSs9N-" id="EzxEwULjFDBiXr7_w85N-150">
          <mxCell style="html=1;jettySize=18;whiteSpace=wrap;fontSize=13;strokeColor=#5E5E5E;strokeWidth=1.5;rounded=1;arcSize=12;edgeStyle=orthogonalEdgeStyle;startArrow=none;;endArrow=block;endFill=1;;exitX=0.5;exitY=1.007;exitPerimeter=0;entryX=0.5;entryY=-0.009;entryPerimeter=0;" edge="1" parent="1" source="EzxEwULjFDBiXr7_w85N-3" target="EzxEwULjFDBiXr7_w85N-7">
            <mxGeometry width="100" height="100" relative="1" as="geometry">
              <Array as="points" />
            </mxGeometry>
          </mxCell>
        </UserObject>
        <UserObject label="" lucidchartObjectId="R-NvyRQNSCsr" id="EzxEwULjFDBiXr7_w85N-151">
          <mxCell style="html=1;jettySize=18;whiteSpace=wrap;fontSize=13;strokeColor=#5E5E5E;strokeWidth=1.5;rounded=1;arcSize=12;edgeStyle=orthogonalEdgeStyle;startArrow=none;;endArrow=block;endFill=1;;exitX=1.004;exitY=0.5;exitPerimeter=0;entryX=-0.004;entryY=0.5;entryPerimeter=0;" edge="1" parent="1" source="EzxEwULjFDBiXr7_w85N-7" target="EzxEwULjFDBiXr7_w85N-11">
            <mxGeometry width="100" height="100" relative="1" as="geometry">
              <Array as="points" />
            </mxGeometry>
          </mxCell>
        </UserObject>
        <UserObject label="" lucidchartObjectId="d_NvTGhKTWLd" id="EzxEwULjFDBiXr7_w85N-152">
          <mxCell style="html=1;jettySize=18;whiteSpace=wrap;fontSize=13;strokeColor=#5E5E5E;strokeWidth=1.5;rounded=1;arcSize=12;edgeStyle=orthogonalEdgeStyle;startArrow=none;;endArrow=none;;exitX=1.004;exitY=0.5;exitPerimeter=0;entryX=0;entryY=0.806;entryPerimeter=0;entryDx=0;entryDy=0;" edge="1" parent="1" source="EzxEwULjFDBiXr7_w85N-11" target="EzxEwULjFDBiXr7_w85N-16">
            <mxGeometry width="100" height="100" relative="1" as="geometry">
              <Array as="points" />
            </mxGeometry>
          </mxCell>
        </UserObject>
        <UserObject label="" lucidchartObjectId="z_Nvz7.wM401" id="EzxEwULjFDBiXr7_w85N-153">
          <mxCell style="html=1;jettySize=18;whiteSpace=wrap;fontSize=13;strokeColor=#5E5E5E;strokeWidth=1.5;rounded=1;arcSize=12;edgeStyle=orthogonalEdgeStyle;startArrow=none;;endArrow=none;;exitX=1.004;exitY=0.5;exitPerimeter=0;entryX=-0.002;entryY=0.5;entryPerimeter=0;" edge="1" parent="1" source="EzxEwULjFDBiXr7_w85N-15" target="EzxEwULjFDBiXr7_w85N-23">
            <mxGeometry width="100" height="100" relative="1" as="geometry">
              <Array as="points" />
            </mxGeometry>
          </mxCell>
        </UserObject>
        <UserObject label="" lucidchartObjectId="5_NvWX7jh~L4" id="EzxEwULjFDBiXr7_w85N-154">
          <mxCell style="html=1;jettySize=18;whiteSpace=wrap;fontSize=13;strokeColor=#5E5E5E;strokeWidth=1.5;rounded=1;arcSize=12;edgeStyle=orthogonalEdgeStyle;startArrow=none;;endArrow=block;endFill=1;;exitX=0.5;exitY=-0.005;exitPerimeter=0;entryX=0.5;entryY=1.007;entryPerimeter=0;" edge="1" parent="1" source="EzxEwULjFDBiXr7_w85N-11" target="EzxEwULjFDBiXr7_w85N-27">
            <mxGeometry width="100" height="100" relative="1" as="geometry">
              <Array as="points" />
            </mxGeometry>
          </mxCell>
        </UserObject>
        <UserObject label="" lucidchartObjectId="w.NvlFtaEDWw" id="EzxEwULjFDBiXr7_w85N-155">
          <mxCell style="html=1;jettySize=18;whiteSpace=wrap;fontSize=13;strokeColor=#5E5E5E;strokeWidth=1.5;rounded=1;arcSize=12;edgeStyle=orthogonalEdgeStyle;startArrow=none;;endArrow=block;endFill=1;;exitX=1.004;exitY=0.5;exitPerimeter=0;entryX=-0.004;entryY=0.5;entryPerimeter=0;" edge="1" parent="1" source="EzxEwULjFDBiXr7_w85N-27" target="EzxEwULjFDBiXr7_w85N-71">
            <mxGeometry width="100" height="100" relative="1" as="geometry">
              <Array as="points" />
            </mxGeometry>
          </mxCell>
        </UserObject>
        <UserObject label="" lucidchartObjectId="-.NvLZ5EXA91" id="EzxEwULjFDBiXr7_w85N-156">
          <mxCell style="html=1;jettySize=18;whiteSpace=wrap;fontSize=13;strokeColor=#5E5E5E;strokeWidth=1.5;rounded=1;arcSize=12;edgeStyle=orthogonalEdgeStyle;startArrow=none;;endArrow=none;;exitX=0.5;exitY=1.006;exitPerimeter=0;entryX=1.002;entryY=0.287;entryPerimeter=0;" edge="1" parent="1" source="EzxEwULjFDBiXr7_w85N-75" target="EzxEwULjFDBiXr7_w85N-23">
            <mxGeometry width="100" height="100" relative="1" as="geometry">
              <Array as="points" />
            </mxGeometry>
          </mxCell>
        </UserObject>
        <UserObject label="" lucidchartObjectId="x~NviTrcW.mC" id="EzxEwULjFDBiXr7_w85N-157">
          <mxCell style="html=1;jettySize=18;whiteSpace=wrap;fontSize=13;strokeColor=#5E5E5E;strokeWidth=1.5;rounded=1;arcSize=12;edgeStyle=orthogonalEdgeStyle;startArrow=none;;endArrow=block;endFill=1;;exitX=0.5;exitY=-0.007;exitPerimeter=0;entryX=1.004;entryY=0.5;entryPerimeter=0;" edge="1" parent="1" source="EzxEwULjFDBiXr7_w85N-27" target="EzxEwULjFDBiXr7_w85N-79">
            <mxGeometry width="100" height="100" relative="1" as="geometry">
              <Array as="points" />
            </mxGeometry>
          </mxCell>
        </UserObject>
        <UserObject label="" lucidchartObjectId="9~NvO5J-QICn" id="EzxEwULjFDBiXr7_w85N-158">
          <mxCell style="html=1;jettySize=18;whiteSpace=wrap;fontSize=13;strokeColor=#5E5E5E;strokeWidth=1.5;rounded=1;arcSize=12;edgeStyle=orthogonalEdgeStyle;startArrow=none;;endArrow=block;endFill=1;;exitX=-0.004;exitY=0.5;exitPerimeter=0;entryX=0.475;entryY=1.006;entryPerimeter=0;" edge="1" parent="1" source="EzxEwULjFDBiXr7_w85N-79" target="EzxEwULjFDBiXr7_w85N-83">
            <mxGeometry width="100" height="100" relative="1" as="geometry">
              <Array as="points" />
            </mxGeometry>
          </mxCell>
        </UserObject>
        <UserObject label="" lucidchartObjectId="PbOvTs6K_WYb" id="EzxEwULjFDBiXr7_w85N-159">
          <mxCell style="html=1;jettySize=18;whiteSpace=wrap;fontSize=13;strokeColor=#5E5E5E;strokeWidth=1.5;rounded=1;arcSize=12;edgeStyle=orthogonalEdgeStyle;startArrow=none;;endArrow=none;;exitX=0.5;exitY=-0.006;exitPerimeter=0;entryX=0.591;entryY=-0.002;entryPerimeter=0;" edge="1" parent="1" source="EzxEwULjFDBiXr7_w85N-83" target="EzxEwULjFDBiXr7_w85N-23">
            <mxGeometry width="100" height="100" relative="1" as="geometry">
              <Array as="points" />
            </mxGeometry>
          </mxCell>
        </UserObject>
      </root>
    </mxGraphModel>
  </diagram>
</mxfile>
